<svg width="200" height="103" viewBox="0 0 200 103" fill="none" xmlns="http://www.w3.org/2000/svg">
<path d="M192.381 92.5208H7.62012C12.1149 75.1614 15.9326 54.3229 17.141 30.6145C17.5316 22.9479 17.6201 15.5989 17.4743 8.60933C25.2503 5.05725 39.3128 0.05725 57.141 1.09371C76.6566 2.22392 91.3701 10.0572 100 16C108.631 10.0572 123.344 2.22392 142.86 1.09371C160.688 0.05725 174.756 5.05725 182.526 8.60933C182.381 15.5989 182.469 22.9479 182.86 30.6145C184.068 54.3229 187.886 75.1614 192.381 92.5208Z" fill="#FAEDD5"/>
<path d="M4.28646 88.7134H195.714C196.156 88.7134 196.583 88.7967 196.99 88.9634C197.396 89.1353 197.76 89.3748 198.073 89.6873C198.385 89.9998 198.625 90.3592 198.792 90.7707C198.964 91.1769 199.047 91.604 199.047 92.0467C199.047 92.4894 198.964 92.9113 198.792 93.3228C198.625 93.729 198.385 94.0884 198.073 94.4009C197.76 94.7134 197.396 94.9582 196.99 95.1248C196.583 95.2915 196.156 95.38 195.714 95.38H4.28646C3.84375 95.38 3.41667 95.2915 3.01042 95.1248C2.60417 94.9582 2.23958 94.7134 1.92708 94.4009C1.61458 94.0884 1.375 93.729 1.20833 93.3228C1.03646 92.9113 0.953125 92.4894 0.953125 92.0467C0.953125 91.604 1.03646 91.1769 1.20833 90.7707C1.375 90.3592 1.61458 89.9998 1.92708 89.6873C2.23958 89.3748 2.60417 89.1353 3.01042 88.9634C3.41667 88.7967 3.84375 88.7134 4.28646 88.7134Z" fill="#12234F"/>
<path d="M197.141 91.5678L195.24 90.6146H164.76C164.125 64.5886 163.495 38.5521 162.859 12.5209C168.469 12.2813 176.354 12.7969 184.76 16.3334C185.771 16.7605 186.745 17.2084 187.667 17.6719C187.771 23.9688 188.057 30.5105 188.573 37.2813C190.094 57.5209 193.307 75.724 197.141 91.5678Z" fill="#12234F"/>
<path d="M37.1406 12.5209C36.5052 38.5521 35.875 64.5886 35.2396 90.6146H4.76042L2.85938 91.5678C6.69271 75.7188 9.90625 57.5209 11.4271 37.2813C11.9427 30.5105 12.2292 23.9688 12.3333 17.6719C13.2552 17.2084 14.2292 16.7605 15.2396 16.3334C23.6458 12.7969 31.5313 12.2813 37.1406 12.5209Z" fill="#12234F"/>
<path d="M191.416 88.7135H100.807C100.531 88.8177 100.265 88.9218 99.9997 89.0364C99.7341 88.9218 99.4684 88.8177 99.1924 88.7135H8.58301C12.6455 72.1406 16.0205 52.6145 17.1403 30.6145C17.5309 22.9479 17.6195 15.5989 17.4736 8.60933C25.2497 5.05725 39.3122 0.05725 57.1403 1.09371C76.6559 2.22392 91.3695 10.0572 99.9997 16C108.63 10.0572 123.343 2.22392 142.859 1.09371C160.687 0.05725 174.755 5.05725 182.526 8.60933C182.38 15.5989 182.468 22.9479 182.859 30.6145C183.979 52.6145 187.354 72.1406 191.416 88.7135Z" fill="#F3DCB1"/>
<path d="M110 89.6667C110 90.1042 109.938 90.5365 109.807 90.9635C109.682 91.3958 109.49 91.8125 109.24 92.2135C108.99 92.6198 108.677 93.0052 108.313 93.3698C107.948 93.7344 107.536 94.0677 107.073 94.3802C106.604 94.6875 106.104 94.9635 105.557 95.2083C105.01 95.4531 104.432 95.6563 103.828 95.8229C103.219 95.9896 102.594 96.1198 101.953 96.2031C101.307 96.2865 100.656 96.3333 100 96.3333C99.3437 96.3333 98.6927 96.2865 98.0469 96.2031C97.4063 96.1198 96.7813 95.9896 96.1719 95.8229C95.5677 95.6563 94.9896 95.4531 94.4427 95.2083C93.8958 94.9635 93.3906 94.6875 92.9271 94.3802C92.4635 94.0677 92.0521 93.7344 91.6875 93.3698C91.3229 93.0052 91.0104 92.6198 90.7604 92.2135C90.5104 91.8125 90.3177 91.3958 90.1927 90.9635C90.0625 90.5365 90 90.1042 90 89.6667C90 89.2292 90.0625 88.7917 90.1927 88.3646C90.3177 87.9323 90.5104 87.5156 90.7604 87.1146C91.0104 86.7083 91.3229 86.3229 91.6875 85.9583C92.0521 85.599 92.4635 85.2604 92.9271 84.9479C93.3906 84.6406 93.8958 84.3646 94.4427 84.1198C94.9896 83.8802 95.5677 83.6719 96.1719 83.5052C96.7813 83.3385 97.4063 83.2135 98.0469 83.125C98.6927 83.0417 99.3437 83 100 83C100.656 83 101.307 83.0417 101.953 83.125C102.594 83.2135 103.219 83.3385 103.828 83.5052C104.432 83.6719 105.01 83.8802 105.557 84.1198C106.104 84.3646 106.604 84.6406 107.073 84.9479C107.536 85.2604 107.948 85.599 108.313 85.9583C108.677 86.3229 108.99 86.7083 109.24 87.1146C109.49 87.5156 109.682 87.9323 109.807 88.3646C109.938 88.7917 110 89.2292 110 89.6667Z" fill="#12234F"/>
<path d="M113.807 93.9478C113.807 94.479 113.718 95.0103 113.541 95.5311C113.369 96.0519 113.104 96.5571 112.76 97.0467C112.411 97.5363 111.984 98.005 111.484 98.4478C110.979 98.8905 110.406 99.2967 109.765 99.6717C109.125 100.052 108.427 100.385 107.672 100.682C106.916 100.974 106.125 101.224 105.286 101.427C104.448 101.63 103.583 101.786 102.692 101.89C101.807 101.995 100.906 102.047 99.9997 102.047C99.0934 102.047 98.1924 101.995 97.307 101.89C96.4163 101.786 95.5518 101.63 94.7132 101.427C93.8747 101.224 93.083 100.974 92.3278 100.682C91.5726 100.385 90.8747 100.052 90.234 99.6717C89.5934 99.2967 89.0205 98.8905 88.5153 98.4478C88.0153 98.005 87.5882 97.5363 87.2393 97.0467C86.8955 96.5571 86.6299 96.0519 86.4528 95.5311C86.2809 95.0103 86.1924 94.479 86.1924 93.9478C86.1924 93.4165 86.2809 92.8905 86.458 92.3696C86.6299 91.8488 86.8955 91.3436 87.2393 90.854C87.5882 90.3592 88.0153 89.8957 88.5153 89.453C89.0205 89.0103 89.5934 88.604 90.234 88.2238C90.8747 87.8488 91.5726 87.5155 92.3278 87.2186C93.083 86.9217 93.8747 86.6717 94.7132 86.4686C95.5518 86.2655 96.4163 86.1144 97.307 86.0103C98.1924 85.9061 99.0934 85.854 99.9997 85.854C100.906 85.854 101.807 85.9061 102.692 86.0103C103.583 86.1144 104.448 86.2655 105.286 86.4686C106.125 86.6717 106.916 86.9217 107.672 87.2186C108.427 87.5155 109.125 87.8488 109.765 88.2238C110.406 88.604 110.979 89.0103 111.484 89.453C111.984 89.8957 112.411 90.3592 112.76 90.854C113.104 91.3436 113.369 91.8488 113.541 92.3696C113.718 92.8905 113.807 93.4165 113.807 93.9478Z" fill="#12234F"/>
<path d="M190.531 84.9687C181.438 82.2083 169.802 79.7031 156.193 79.1875C132.583 78.2916 113.323 83.7968 100.807 88.7135C100.531 88.8177 100.266 88.9218 100 89.0364C99.7344 88.9218 99.4688 88.8177 99.1927 88.7135C86.6771 83.7968 67.4167 78.2916 43.8073 79.1875C30.1979 79.7031 18.5625 82.2083 9.46875 84.9687C13.1354 69.2239 16.1042 50.9791 17.1406 30.6145C17.5365 22.9479 17.6198 15.5989 17.4792 8.60933C25.25 5.05725 39.3125 0.05725 57.1406 1.09371C76.6563 2.22392 91.3698 10.0572 100 16C108.63 10.0572 123.344 2.22392 142.859 1.09371C160.688 0.05725 174.755 5.05725 182.526 8.60933C182.38 15.5989 182.469 22.9479 182.859 30.6145C183.896 50.9791 186.865 69.2239 190.531 84.9687Z" fill="#FAEDD5"/>
<mask id="mask0_66_187" style="mask-type:luminance" maskUnits="userSpaceOnUse" x="108" y="86" width="92" height="12">
<path d="M108.667 86.8335H200V97.5002H108.667V86.8335Z" fill="white"/>
</mask>
<g mask="url(#mask0_66_187)">
<path d="M195.713 96.3285H113.588C113.062 96.3285 112.635 95.9066 112.635 95.3805C112.635 94.8493 113.062 94.4274 113.588 94.4274H195.713C196.349 94.4274 196.942 94.1774 197.385 93.7295C197.849 93.2764 198.093 92.6826 198.093 92.0472C198.093 90.9535 197.328 89.9847 196.271 89.7347C196.078 89.6826 195.911 89.6618 195.713 89.6618H109.896C109.369 89.6618 108.942 89.2399 108.942 88.7139C108.942 88.1826 109.369 87.7607 109.896 87.7607H195.713C196.078 87.7607 196.411 87.8024 196.734 87.8857C198.646 88.3337 200 90.0472 200 92.0472C200 93.1826 199.536 94.2868 198.734 95.0785C197.942 95.8805 196.864 96.3285 195.713 96.3285Z" fill="#12234F"/>
</g>
<mask id="mask1_66_187" style="mask-type:luminance" maskUnits="userSpaceOnUse" x="0" y="86" width="92" height="12">
<path d="M0 86.8335H91.3333V97.5002H0V86.8335Z" fill="white"/>
</mask>
<g mask="url(#mask1_66_187)">
<path d="M86.4115 96.3285H4.28646C1.92187 96.3285 0 94.4066 0 92.0472C0 90.891 0.447917 89.818 1.26563 89.016C1.82813 88.4535 2.53125 88.0576 3.29688 87.8805C3.58854 87.8024 3.92187 87.7607 4.28646 87.7607H90.1042C90.6302 87.7607 91.0573 88.1878 91.0573 88.7139C91.0573 89.2399 90.6302 89.6618 90.1042 89.6618H4.28646C4.08854 89.6618 3.91667 89.6826 3.76042 89.7295C3.3125 89.8337 2.92187 90.0524 2.60417 90.3649C2.15104 90.8128 1.90625 91.4066 1.90625 92.0472C1.90625 93.3597 2.97396 94.4274 4.28646 94.4274H86.4115C86.9375 94.4274 87.3646 94.8545 87.3646 95.3805C87.3646 95.9066 86.9375 96.3285 86.4115 96.3285Z" fill="#12234F"/>
</g>
<path d="M100 97.2811C98.0521 97.2811 96.151 96.9269 94.5 96.2603C91.0885 94.9009 89.0469 92.4321 89.0469 89.6613C89.0469 89.2915 89.0885 88.9113 89.1719 88.5155C89.2031 88.3488 89.2552 88.1509 89.3125 87.9582C89.3333 87.9009 89.3542 87.8436 89.3802 87.7967C89.6979 86.9009 90.2344 86.0728 90.9844 85.3228C91.3542 84.953 91.9583 84.953 92.3333 85.3228C92.7031 85.6978 92.7031 86.2967 92.3333 86.6717C91.7604 87.2446 91.3594 87.8644 91.1406 88.5259C91.1302 88.5571 91.1198 88.5884 91.1042 88.6196C91.0833 88.7082 91.0573 88.7915 91.0417 88.88C90.9792 89.1769 90.9531 89.4217 90.9531 89.6613C90.9531 91.5988 92.5833 93.4478 95.2083 94.4946C98.0677 95.6509 101.938 95.6509 104.786 94.4946C107.417 93.4478 109.047 91.5988 109.047 89.6613C109.047 89.4217 109.021 89.1769 108.964 88.9061C108.943 88.8019 108.922 88.7082 108.896 88.6144C108.88 88.5884 108.87 88.5571 108.859 88.5259C108.641 87.8644 108.24 87.2446 107.672 86.6717C107.297 86.2967 107.297 85.6978 107.672 85.3228C108.042 84.953 108.646 84.953 109.016 85.3228C109.766 86.0728 110.307 86.9061 110.625 87.8019C110.651 87.8488 110.667 87.9009 110.688 87.953C110.745 88.1509 110.797 88.3488 110.833 88.5467C110.911 88.9113 110.953 89.2915 110.953 89.6613C110.953 92.4321 108.911 94.9009 105.495 96.2603C103.854 96.9269 101.948 97.2811 100 97.2811Z" fill="#12234F"/>
<mask id="mask2_66_187" style="mask-type:luminance" maskUnits="userSpaceOnUse" x="84" y="93" width="32" height="10">
<path d="M84.667 93.5H115.334V103H84.667V93.5Z" fill="white"/>
</mask>
<g mask="url(#mask2_66_187)">
<path d="M100 102.995C92.8909 102.995 86.7919 99.9112 85.5002 95.656C85.344 95.1508 85.6304 94.6195 86.1304 94.4685C86.6357 94.3122 87.1669 94.5987 87.3232 95.0987C88.3596 98.5154 93.8127 101.093 100 101.093C106.188 101.093 111.641 98.5154 112.677 95.0987C112.834 94.5987 113.365 94.3122 113.87 94.4685C114.37 94.6195 114.656 95.1508 114.5 95.656C113.209 99.9112 107.11 102.995 100 102.995Z" fill="#12234F"/>
</g>
<path d="M196.484 89.7603C196.052 89.7603 195.661 89.4635 195.557 89.026C191.594 72.0312 188.927 54.651 187.62 37.3541C187.13 30.8697 186.823 24.2551 186.714 17.6874C186.703 17.1614 187.125 16.7291 187.651 16.7239C188.13 16.703 188.609 17.1301 188.62 17.6562C188.729 24.1822 189.031 30.7655 189.521 37.2135C190.818 54.4114 193.474 71.6978 197.411 88.5885C197.531 89.1041 197.214 89.6145 196.703 89.7343C196.63 89.7499 196.557 89.7603 196.484 89.7603Z" fill="#12234F"/>
<path d="M191.417 89.6615C190.99 89.6615 190.604 89.375 190.495 88.9427C190.188 87.7031 189.891 86.4583 189.604 85.1875C189.599 85.1719 189.599 85.151 189.594 85.1354C188.818 81.8438 188.057 78.3021 187.333 74.6094C184.49 60.1875 182.662 45.401 181.906 30.6667C181.651 25.651 181.516 20.526 181.505 15.4375C181.505 12.9427 181.526 10.7031 181.573 8.58854C181.583 8.06771 182.005 7.65625 182.526 7.65625H182.542C183.068 7.66667 183.49 8.10417 183.474 8.625C183.432 10.7292 183.412 12.9583 183.412 15.4375C183.422 20.4896 183.552 25.5833 183.807 30.5677C184.557 45.2135 186.375 59.9063 189.203 74.2396C189.927 77.9323 190.688 81.4635 191.458 84.75C191.464 84.7708 191.469 84.7969 191.474 84.8229C191.755 86.0625 192.047 87.276 192.344 88.4844C192.469 88.9948 192.156 89.5104 191.646 89.6354C191.573 89.6563 191.495 89.6615 191.417 89.6615Z" fill="#12234F"/>
<path d="M187.667 18.6249C187.521 18.6249 187.375 18.5936 187.24 18.5259C186.349 18.0728 185.391 17.6301 184.391 17.2082C183.563 16.8592 182.823 16.5728 182.141 16.3332C181.646 16.1613 181.385 15.6197 181.557 15.1197C181.734 14.6249 182.276 14.3644 182.771 14.5363C183.49 14.7863 184.26 15.0884 185.13 15.453C186.177 15.8957 187.172 16.3592 188.094 16.8228C188.568 17.0624 188.755 17.6353 188.516 18.104C188.349 18.4322 188.016 18.6249 187.667 18.6249Z" fill="#12234F"/>
<path d="M99.9999 89.8439C99.7291 89.8439 99.4635 89.7293 99.276 89.5106C98.9322 89.1095 98.9791 88.5106 99.3801 88.1668C99.427 88.1304 99.4791 88.0887 99.526 88.0418C100.583 87.1148 101.656 86.2241 102.766 85.3543C103.521 84.7502 104.338 84.1252 105.224 83.4689C114.635 76.5523 130.115 68.0418 150.417 66.8075C155.016 66.5314 159.687 66.6408 164.312 67.1356C172.599 68.0366 180.781 70.1929 188.641 73.547C189.125 73.7554 189.349 74.3179 189.141 74.797C188.937 75.2814 188.38 75.5054 187.891 75.3023C180.208 72.0158 172.203 69.9064 164.109 69.0314C159.588 68.547 155.021 68.4377 150.536 68.7085C130.693 69.9168 115.557 78.2345 106.354 85.0054C105.49 85.6408 104.687 86.2554 103.948 86.8491C102.859 87.7033 101.812 88.5731 100.828 89.4273C100.792 89.4689 100.703 89.5418 100.62 89.62C100.437 89.771 100.219 89.8439 99.9999 89.8439Z" fill="#12234F"/>
<mask id="mask3_66_187" style="mask-type:luminance" maskUnits="userSpaceOnUse" x="98" y="0" width="87" height="18">
<path d="M98 0H184.667V17.5H98V0Z" fill="white"/>
</mask>
<g mask="url(#mask3_66_187)">
<path d="M99.9999 16.948C99.6978 16.948 99.4009 16.8074 99.2134 16.5365C98.9165 16.1042 99.0259 15.5105 99.4582 15.2136C108.542 8.95841 123.432 1.2657 142.802 0.140701C160.026 -0.8593 174.125 3.71882 182.922 7.73966C183.396 7.95841 183.609 8.52612 183.39 9.00528C183.172 9.47924 182.609 9.69278 182.125 9.47403C173.531 5.54174 159.745 1.06258 142.911 2.04695C123.979 3.14591 109.422 10.6667 100.542 16.7813C100.375 16.8959 100.187 16.948 99.9999 16.948Z" fill="#12234F"/>
</g>
<path d="M99.9427 90.0103C99.6042 90.0103 99.2865 89.8124 99.1146 89.4842C98.875 89.0155 99.099 88.4269 99.5677 88.1874C99.6302 88.1561 99.7032 88.1196 99.7865 88.0936C100.016 87.9999 100.245 87.9009 100.484 87.8176C102.406 87.0624 104.182 86.4061 105.891 85.8228C106.583 85.5728 107.307 85.3332 108.047 85.0936C123.755 79.9321 139.964 77.6249 156.229 78.2342C158.948 78.3384 161.76 78.5311 164.589 78.8124C173.432 79.6978 182.255 81.4634 190.813 84.0571C191.214 84.1769 191.484 84.5519 191.484 84.9686C191.484 85.4946 191.063 85.9269 190.537 85.9269C190.401 85.9269 190.276 85.9009 190.162 85.854C181.755 83.3071 173.089 81.578 164.401 80.7082C161.615 80.4321 158.839 80.2394 156.156 80.1405C140.125 79.5467 124.135 81.8124 108.641 86.9009C107.911 87.1405 107.208 87.3749 106.521 87.6196C104.828 88.1978 103.078 88.8436 101.156 89.5988C100.911 89.6874 100.693 89.7759 100.479 89.8696C100.443 89.8853 100.401 89.8957 100.359 89.9061C100.224 89.979 100.083 90.0103 99.9427 90.0103Z" fill="#12234F"/>
<path d="M116.193 63.9479C115.812 63.9479 115.453 63.7239 115.307 63.3489C115.109 62.8593 115.349 62.3073 115.839 62.1093C126.932 57.6979 138.568 55.1146 150.422 54.4271C159.724 53.8854 169.099 54.5364 178.281 56.3489C178.797 56.4531 179.13 56.9531 179.031 57.4687C178.927 57.9843 178.432 58.3177 177.911 58.2187C168.885 56.4375 159.677 55.8021 150.531 56.3281C138.88 57.0052 127.448 59.5468 116.542 63.8802C116.427 63.9271 116.307 63.9479 116.193 63.9479Z" fill="#12234F"/>
<path d="M112.38 37.2864C112.005 37.2864 111.646 37.0573 111.495 36.6823C111.302 36.1927 111.542 35.6406 112.031 35.4479C123.125 31.0312 134.76 28.4479 146.609 27.7604C155.917 27.2239 165.292 27.8698 174.469 29.6823C174.984 29.7864 175.323 30.2864 175.219 30.802C175.12 31.3177 174.615 31.651 174.099 31.552C165.078 29.7708 155.87 29.1302 146.719 29.6614C135.073 30.3385 123.635 32.8802 112.734 37.2187C112.62 37.2604 112.5 37.2864 112.38 37.2864Z" fill="#12234F"/>
<path d="M114.286 50.6147C113.906 50.6147 113.547 50.3908 113.401 50.0158C113.208 49.5262 113.442 48.9741 113.932 48.7814C125.031 44.3647 136.666 41.7814 148.515 41.0939C157.823 40.5574 167.193 41.2033 176.375 43.0158C176.89 43.1199 177.224 43.6199 177.125 44.1355C177.021 44.6512 176.526 44.9897 176.005 44.8855C166.984 43.1043 157.771 42.4689 148.625 42.9949C136.979 43.672 125.541 46.2137 114.635 50.5522C114.521 50.5939 114.401 50.6147 114.286 50.6147Z" fill="#12234F"/>
<path d="M110.479 23.9479C110.099 23.9479 109.74 23.7239 109.594 23.3489C109.396 22.8593 109.636 22.3073 110.125 22.1146C121.219 17.6979 132.854 15.1146 144.708 14.4271C154.016 13.8854 163.386 14.5364 172.568 16.3489C173.083 16.4531 173.417 16.9531 173.313 17.4687C173.214 17.9843 172.714 18.3229 172.198 18.2187C163.172 16.4375 153.964 15.7968 144.818 16.3281C133.167 17.0052 121.735 19.5468 110.828 23.8802C110.714 23.9271 110.594 23.9531 110.474 23.9531L110.479 23.9479Z" fill="#12234F"/>
<path d="M3.51583 89.7604C3.44291 89.7604 3.36999 89.75 3.29708 89.7344C2.78666 89.6146 2.46895 89.1042 2.58874 88.5885C6.52624 71.6979 9.18249 54.4115 10.4794 37.2135C10.969 30.7604 11.271 24.1823 11.3804 17.6563C11.3908 17.1354 11.8127 16.7188 12.3335 16.7188H12.3492C12.8752 16.7292 13.2971 17.1615 13.2867 17.6875C13.1773 24.2552 12.87 30.8698 12.3804 37.3542C11.0731 54.651 8.40124 72.0365 4.44291 89.026C4.33874 89.4635 3.94812 89.7604 3.51583 89.7604Z" fill="#12234F"/>
<path d="M8.58335 89.6615C8.50522 89.6615 8.42709 89.6563 8.34897 89.6354C7.83855 89.5104 7.53126 88.9948 7.65626 88.4792C7.95834 87.276 8.2448 86.0573 8.52605 84.8177C8.53126 84.7917 8.53647 84.7708 8.53647 84.75C9.31251 81.4531 10.0729 77.9167 10.7969 74.2396C13.625 59.9063 15.4427 45.2135 16.1927 30.5677C16.4479 25.5729 16.5781 20.4844 16.5886 15.4323C16.5886 12.9583 16.5677 10.7292 16.5208 8.625C16.5104 8.10417 16.9271 7.66667 17.4531 7.65625C17.9688 7.68229 18.4167 8.0625 18.4271 8.58854C18.474 10.7031 18.4948 12.9427 18.4948 15.4375C18.4844 20.5156 18.349 25.6406 18.0938 30.6667C17.3386 45.401 15.5104 60.1875 12.6667 74.6094C11.9427 78.2917 11.1823 81.8333 10.4063 85.1354C10.4011 85.151 10.4011 85.1719 10.3958 85.1875C10.1094 86.4583 9.81251 87.7083 9.50522 88.9427C9.39585 89.375 9.01043 89.6615 8.58335 89.6615Z" fill="#12234F"/>
<path d="M12.333 18.6249C11.984 18.6249 11.6507 18.4322 11.484 18.104C11.2444 17.6353 11.4319 17.0624 11.9059 16.8228C12.8278 16.3592 13.8226 15.8957 14.8642 15.453C15.7392 15.0884 16.5101 14.7863 17.2288 14.5363C17.7236 14.3644 18.2653 14.6249 18.4424 15.1197C18.6142 15.6144 18.3538 16.1613 17.859 16.3332C17.1767 16.5728 16.4371 16.8592 15.6038 17.2082C14.609 17.6301 13.6507 18.0728 12.7601 18.5259C12.6246 18.5936 12.4788 18.6249 12.333 18.6249Z" fill="#12234F"/>
<path d="M99.9998 89.8439C99.781 89.8439 99.5623 89.771 99.38 89.6148C99.2967 89.5418 99.2081 89.4689 99.1248 89.3804C98.1873 88.5731 97.1404 87.7033 96.0571 86.8491C95.3123 86.2554 94.5102 85.6408 93.6456 85.0002C84.4425 78.2345 69.3071 69.9168 49.4685 68.7085C44.9737 68.4377 40.4112 68.547 35.8904 69.0314C27.7966 69.9064 19.7914 72.0158 12.1091 75.3023C11.6248 75.5054 11.0623 75.2814 10.8591 74.797C10.6508 74.3179 10.8748 73.7554 11.3591 73.547C19.2185 70.1929 27.4008 68.0366 35.6873 67.1356C40.3123 66.6408 44.9841 66.5314 49.5831 66.8075C69.8852 68.0418 85.3644 76.5523 94.7706 83.4689C95.6612 84.1252 96.4789 84.7502 97.2394 85.3595C98.3435 86.2241 99.4164 87.1148 100.427 87.995C100.521 88.0887 100.573 88.1252 100.62 88.1668C101.015 88.5106 101.067 89.1095 100.724 89.5106C100.536 89.7293 100.271 89.8439 99.9998 89.8439Z" fill="#12234F"/>
<mask id="mask4_66_187" style="mask-type:luminance" maskUnits="userSpaceOnUse" x="15" y="0" width="87" height="18">
<path d="M15.333 0H102V17.5H15.333V0Z" fill="white"/>
</mask>
<g mask="url(#mask4_66_187)">
<path d="M99.9996 16.948C99.8121 16.948 99.6246 16.8959 99.4579 16.7813C90.5777 10.6667 76.0204 3.1407 57.0882 2.04174C40.2496 1.06258 26.4684 5.54174 17.8694 9.47403C17.3954 9.69278 16.8277 9.47924 16.609 9.00528C16.3902 8.52612 16.6038 7.95841 17.0777 7.73966C25.8746 3.71882 39.9788 -0.8593 57.1975 0.140701C76.5673 1.2657 91.4579 8.95841 100.541 15.2136C100.974 15.5105 101.083 16.1042 100.786 16.5365C100.599 16.8074 100.302 16.948 99.9996 16.948Z" fill="#12234F"/>
</g>
<path d="M100 89.9894C99.8542 89.9894 99.7031 89.953 99.5677 89.8853L100 89.0363L99.5521 89.8749C99.3073 89.7759 99.0885 89.6874 98.8646 89.604C96.9219 88.8436 95.1719 88.1978 93.4896 87.6196C92.7917 87.3749 92.0885 87.1405 91.3646 86.9009C75.8646 81.8124 59.875 79.5415 43.8438 80.1405C41.1615 80.2394 38.3854 80.4269 35.599 80.7082C26.9063 81.578 18.2396 83.3071 9.82813 85.854C9.71354 85.9009 9.59375 85.9269 9.46875 85.9269C8.94271 85.9269 8.51562 85.5051 8.51562 84.979C8.51562 84.5571 8.78646 84.1769 9.1875 84.0571C17.7448 81.4634 26.5677 79.6978 35.4115 78.8124C38.2396 78.5311 41.0521 78.3384 43.776 78.2342C60.0313 77.6249 76.2448 79.9321 91.9531 85.0936C92.6927 85.3332 93.4167 85.5728 94.1198 85.8228C95.8177 86.4061 97.5885 87.0624 99.5365 87.828C99.7552 87.9009 99.9844 87.9999 100.214 88.0936C100.297 88.1196 100.37 88.1561 100.432 88.1874C100.901 88.4269 101.089 88.9999 100.849 89.4686C100.677 89.8019 100.344 89.9894 100 89.9894Z" fill="#12234F"/>
<path d="M83.8071 63.9477C83.6925 63.9477 83.5727 63.9269 83.4581 63.88C72.5519 59.5467 61.1144 57.005 49.4686 56.3279C40.3227 55.8019 31.1144 56.4321 22.0883 58.2186C21.5727 58.3175 21.0727 57.9842 20.9686 57.4686C20.8696 56.9529 21.2029 56.4529 21.7186 56.3488C30.9008 54.5363 40.2758 53.8904 49.5779 54.4269C61.4321 55.1144 73.0675 57.6977 84.1613 62.1092C84.6508 62.3071 84.8904 62.8592 84.6925 63.3488C84.5467 63.7238 84.1873 63.9477 83.8071 63.9477Z" fill="#12234F"/>
<path d="M87.6201 37.2866C87.5003 37.2866 87.3805 37.2605 87.2659 37.2137C76.3649 32.8803 64.9274 30.3387 53.2763 29.6616C44.1305 29.1303 34.9222 29.7658 25.9013 31.5522C25.3805 31.6564 24.8805 31.3178 24.7815 30.8022C24.6774 30.2866 25.0159 29.7866 25.5315 29.6824C34.7086 27.8699 44.0836 27.2189 53.3857 27.7605C65.2399 28.4481 76.8753 31.0314 87.969 35.448C88.4586 35.6408 88.6982 36.1928 88.5055 36.6824C88.3545 37.0574 87.9951 37.2814 87.6201 37.2814V37.2866Z" fill="#12234F"/>
<path d="M85.7134 50.6147C85.5988 50.6147 85.479 50.5939 85.3644 50.5522C74.4581 46.2137 63.0206 43.672 51.3748 42.9949C42.229 42.4689 33.0154 43.1043 23.9946 44.8855C23.479 44.9845 22.979 44.6512 22.8748 44.1355C22.7758 43.6199 23.1092 43.1199 23.6248 43.0158C32.8019 41.2033 42.1769 40.5574 51.4842 41.0939C63.3331 41.7814 74.9686 44.3647 86.0675 48.7762C86.5571 48.9741 86.7915 49.5262 86.5988 50.0158C86.4529 50.3908 86.0936 50.6147 85.7134 50.6147Z" fill="#12234F"/>
<path d="M89.521 23.9479C89.4064 23.9479 89.2866 23.9271 89.172 23.8802C78.2658 19.5468 66.8335 17.0052 55.1824 16.3281C46.0366 15.7968 36.8231 16.4323 27.8022 18.2187C27.2866 18.3229 26.7866 17.9843 26.6824 17.4687C26.5835 16.9531 26.9168 16.4479 27.4324 16.3489C36.6147 14.5364 45.9845 13.8854 55.2918 14.4271C67.146 15.1146 78.7814 17.6979 89.8751 22.1146C90.3647 22.3073 90.6043 22.8593 90.4064 23.3489C90.2605 23.7239 89.9012 23.9479 89.521 23.9479Z" fill="#12234F"/>
<path d="M100 89.9896C99.474 89.9896 99.0469 89.5625 99.0469 89.0365V16C99.0469 15.474 99.474 15.0469 100 15.0469C100.526 15.0469 100.953 15.474 100.953 16V89.0365C100.953 89.5625 100.526 89.9896 100 89.9896Z" fill="#12234F"/>
</svg>
