<svg width="1638" height="692" viewBox="0 0 1638 692" fill="none" xmlns="http://www.w3.org/2000/svg">
<path d="M430.5 691.5H271.5C271.5 691.5 440.8 349.2 456 328C471.2 306.8 500 299.833 512.5 299C525 298.167 629.5 299 629.5 299L430.5 691.5Z" fill="#5EB25E"/>
<path d="M430.5 691.5H271.5L629.5 299L430.5 691.5Z" fill="#468946"/>
<path d="M164.5 169.5H0L255.5 668L334.5 507L164.5 169.5Z" fill="#194872"/>
<path d="M309 559L0 169.5H164.5L334.5 507L309 559Z" fill="#1E5F93"/>
<path d="M551.5 264.5C463 264.5 362 333.167 347.5 373.5C347.5 120.7 441.5 72 540 72C638.5 72 753.667 32.8333 774 0L738 208.5C694.4 272.5 627.545 264.5 551.5 264.5Z" fill="#E12B3B"/>
<path d="M551.5 264.5C463 264.5 362 333.167 347.5 373.5C347.5 120.7 441.5 72 540 72C638.5 72 753.667 32.8333 774 0L738 208.5C694.4 272.5 627.545 264.5 551.5 264.5Z" fill="url(#paint0_linear_62_113)" fill-opacity="0.3"/>
<path d="M559.5 176.5C388 199 347 374.5 347 374.5C366.167 338.5 456.5 266.5 559.5 265C662.5 263.5 713.3 265.6 738.5 208L750.5 136C743.7 174.8 731 154 559.5 176.5Z" fill="white"/>
<path d="M559.5 176.5C388 199 347 374.5 347 374.5C366.167 338.5 456.5 266.5 559.5 265C662.5 263.5 713.3 265.6 738.5 208L750.5 136C743.7 174.8 731 154 559.5 176.5Z" fill="url(#paint1_linear_62_113)" fill-opacity="0.3"/>
<path d="M1223.93 502.916C1205.55 459.894 1189.38 422.063 1188 418.847L1185.5 413L1212.8 413.426L1240.1 413.852L1259.3 462.981C1269.87 490.002 1279.03 511.814 1279.66 511.454C1280.3 511.093 1289.39 488.811 1299.88 461.937L1318.94 413.077H1346.22H1373.5L1355.11 456.06C1344.99 479.7 1328.73 517.708 1318.96 540.521L1301.22 582L1279.28 581.568L1257.35 581.137L1223.93 502.916Z" fill="#202B36"/>
<path d="M1142.25 394H1141.5C1125.21 394 1112 380.792 1112 364.5C1112 348.208 1125.21 335 1141.5 335H1142.25H1143C1159.29 335 1172.5 348.208 1172.5 364.5C1172.5 380.792 1159.29 394 1143 394H1142.25Z" fill="#202B36"/>
<path d="M1118.5 582V498.238V414.476H1141.5H1164.5V498.238V582H1141.5H1118.5Z" fill="#202B36"/>
<path d="M1416.75 394H1416C1399.71 394 1386.5 380.792 1386.5 364.5C1386.5 348.208 1399.71 335 1416 335H1416.75H1417.5C1433.79 335 1447 348.208 1447 364.5C1447 380.792 1433.79 394 1417.5 394H1416.75Z" fill="#202B36"/>
<path d="M1393 582V498.238V414.476H1416H1439V498.238V582H1416H1393Z" fill="#202B36"/>
<path d="M950.884 437.951C964.726 422.872 982.67 413.573 1003.18 410.852C1030.11 407.278 1055.95 415.053 1074.28 432.241C1083.8 441.165 1094.65 458.632 1092.06 460.851C1091.08 461.697 1082.25 465.572 1058.76 475.463C1054.03 477.456 1053.76 477.383 1052.38 473.735C1049.85 467.06 1038.89 456.568 1031.46 453.701C1022.86 450.382 1008.4 450.343 1000.76 453.615C968.461 467.445 966.589 521.069 997.85 536.963C1006.75 541.487 1019.32 542.529 1029.79 539.612C1036.83 537.651 1047.16 528.695 1050.94 521.268C1052.59 518.023 1054.21 515.368 1054.55 515.368C1055.83 515.368 1090.97 530.939 1092.16 532.035C1094.34 534.037 1085.59 548.961 1076.86 558.139C1067.23 568.265 1050.17 577.685 1036.22 580.589C1022.43 583.46 996.335 581.761 984.121 577.198C927.528 556.056 909.975 482.517 950.884 437.951Z" fill="#202B36"/>
<path d="M1495.88 437.951C1509.73 422.872 1527.67 413.573 1548.18 410.852C1575.11 407.278 1600.95 415.053 1619.28 432.241C1628.8 441.165 1639.65 458.632 1637.06 460.851C1636.08 461.697 1627.25 465.572 1603.76 475.463C1599.03 477.456 1598.76 477.383 1597.38 473.735C1594.85 467.06 1583.89 456.568 1576.46 453.701C1567.86 450.382 1553.4 450.343 1545.76 453.615C1513.46 467.445 1511.59 521.069 1542.85 536.963C1551.75 541.487 1564.32 542.529 1574.79 539.612C1581.83 537.651 1592.16 528.695 1595.94 521.268C1597.59 518.023 1599.21 515.368 1599.55 515.368C1600.83 515.368 1635.97 530.939 1637.16 532.035C1639.34 534.037 1630.59 548.961 1621.86 558.139C1612.23 568.265 1595.17 577.685 1581.22 580.589C1567.43 583.46 1541.33 581.761 1529.12 577.198C1472.53 556.056 1454.97 482.517 1495.88 437.951Z" fill="#202B36"/>
<path d="M792 581.464C792 580.965 711.436 390.514 703.719 369.976L700.5 360.5L742.748 360.5H755.5L786.5 439.5L819 518L840.5 465L871.639 388.897L882.5 361.07H908.249H934.5L889 472L843 581.464L825.48 581.869C809.562 582.09 792 581.768 792 581.464Z" fill="#202B36"/>
<defs>
<linearGradient id="paint0_linear_62_113" x1="774" y1="186.75" x2="347.5" y2="186.75" gradientUnits="userSpaceOnUse">
<stop stop-color="#E12B3B"/>
<stop offset="1"/>
</linearGradient>
<linearGradient id="paint1_linear_62_113" x1="750.5" y1="255.25" x2="347" y2="255.25" gradientUnits="userSpaceOnUse">
<stop stop-color="white"/>
<stop offset="1"/>
</linearGradient>
</defs>
</svg>
