<?xml version="1.0" encoding="UTF-8"?>
<svg version="1.1" xmlns="http://www.w3.org/2000/svg" width="768" height="325">
<path d="M0 0 C1.80404297 0.49306641 1.80404297 0.49306641 3.64453125 0.99609375 C25.08726428 7.48504647 41.66590086 19.99812558 57 36 C55.41984958 39.82050448 52.99849247 42.25979726 50.09765625 45.16796875 C49.38010414 45.88839104 49.38010414 45.88839104 48.64805603 46.62336731 C47.63932849 47.63345145 46.62808837 48.6410319 45.61450195 49.64624023 C44.06419691 51.18581484 42.52487407 52.73579337 40.98632812 54.28710938 C40.003245 55.26887128 39.01954184 56.2500128 38.03515625 57.23046875 C37.1419165 58.12145264 36.24867676 59.01243652 35.32836914 59.93041992 C33 62 33 62 30 63 C29.45214844 62.39414063 28.90429688 61.78828125 28.33984375 61.1640625 C18.04090417 50.27900441 6.37871245 42.49334764 -8 38 C-9.02867187 37.63648438 -10.05734375 37.27296875 -11.1171875 36.8984375 C-16.47567269 35.65854656 -21.64088931 35.61683365 -27.125 35.625 C-28.79743774 35.62741699 -28.79743774 35.62741699 -30.50366211 35.62988281 C-38.697023 35.75191286 -45.46155672 36.61180388 -53 40 C-53.73605469 40.30035156 -54.47210938 40.60070312 -55.23046875 40.91015625 C-68.84645115 46.99389307 -80.28031609 59.34027777 -86.25390625 72.83203125 C-93.46346849 91.85357001 -93.16153405 112.36206405 -85.71484375 131.26171875 C-78.7015357 146.51908249 -67.30160794 156.51707576 -52 163 C-34.71583557 169.3042545 -15.35090219 168.59872326 1.640625 161.66796875 C12.3865914 156.33247148 21.40039796 148.24859788 30 140 C32.99103707 141.33218684 34.96228741 142.75306169 37.171875 145.16015625 C37.75050293 145.785271 38.32913086 146.41038574 38.92529297 147.05444336 C39.52744629 147.71710205 40.12959961 148.37976074 40.75 149.0625 C41.36891113 149.73482666 41.98782227 150.40715332 42.62548828 151.09985352 C47.13972311 156.01615399 51.61151521 160.97095998 56 166 C54.40273899 170.11002527 51.43953235 172.72274546 48.25 175.625 C47.67435303 176.14989014 47.09870605 176.67478027 46.50561523 177.21557617 C32.58938822 189.66852104 17.40835749 198.83690951 -1 203 C-2.15157593 203.26490234 -2.15157593 203.26490234 -3.32641602 203.53515625 C-11.3831951 205.21255983 -19.35599206 205.39878942 -27.5625 205.375 C-28.26865448 205.37445618 -28.97480896 205.37391235 -29.70236206 205.37335205 C-40.86603306 205.33386147 -51.36110218 204.5924609 -62 201 C-62.66225586 200.78037598 -63.32451172 200.56075195 -64.00683594 200.33447266 C-87.44330801 192.31613487 -107.06784963 175.27178028 -118.25 153.1875 C-123.38923528 142.68908173 -127.30359944 131.59864568 -129 120 C-129.11085937 119.26265625 -129.22171875 118.5253125 -129.3359375 117.765625 C-132.86159997 89.36974887 -127.03217306 60.20782707 -110 37 C-92.86324046 15.54153578 -69.6367255 2.30803016 -42.78515625 -2.5859375 C-28.55102541 -4.14302508 -13.81698784 -3.89144355 0 0 Z " fill="#3E408C" transform="translate(268,120)"/>
<path d="M0 0 C24.95031511 -1.04792613 24.95031511 -1.04792613 37 5 C38.01964844 5.49628906 39.03929687 5.99257812 40.08984375 6.50390625 C68.15712925 21.49479876 82.48959038 52.81106065 91.49584961 81.8347168 C92.80154072 86.16839197 94.07434406 90.51080672 95.31079102 94.86474609 C95.80797501 96.9598811 95.80797501 96.9598811 97 98 C97.32871094 97.1028125 97.65742187 96.205625 97.99609375 95.28125 C102.86687366 82.36134439 109.07417734 67.89832731 119 58 C119.66 58 120.32 58 121 58 C121.33451172 57.16855469 121.33451172 57.16855469 121.67578125 56.3203125 C133.10584839 36.29240724 165.10313297 23.62699908 186.17578125 17.8125 C190.09817805 16.78099349 194.03899895 15.87133604 198 15 C198.97582031 14.78472656 199.95164063 14.56945313 200.95703125 14.34765625 C219.019571 10.72456995 239.8758954 10.21147749 258 14 C258.66 14.66 259.32 15.32 260 16 C259.319375 16.268125 258.63875 16.53625 257.9375 16.8125 C249.04034233 20.40922331 240.52555028 24.60674223 232 29 C231.03392822 29.4935498 231.03392822 29.4935498 230.04833984 29.99707031 C209.99851021 40.27036744 191.60659053 52.95004698 175.40039062 68.64648438 C174.12817027 69.87611995 172.83844048 71.08757484 171.546875 72.296875 C141.9028611 100.69708412 125.79185412 142.31678435 124.875 182.92578125 C124.47518025 209.25273616 128.6457002 234.73243366 136 260 C135.34 260 134.68 260 134 260 C133.50971313 259.09459473 133.50971313 259.09459473 133.00952148 258.17089844 C125.77794479 244.73436128 125.77794479 244.73436128 118.1875 231.5 C114.43919458 225.17074462 111.23454816 218.60127738 108 212 C107.12638104 210.27013519 106.25152355 208.54089487 105.375 206.8125 C100.47433571 196.97721272 96.22169009 186.86525139 91.98574829 176.73138428 C56.5560007 87.62492398 56.5560007 87.62492398 4.01220703 8.08740234 C3.48739746 7.4630127 2.96258789 6.83862305 2.421875 6.1953125 C1.95362305 5.64891113 1.48537109 5.10250977 1.00292969 4.53955078 C0 3 0 3 0 0 Z " fill="#3E408D" transform="translate(0,0)"/>
<path d="M0 0 C15.75089591 12.40979678 15.75089591 12.40979678 16.8359375 20.796875 C16.34303223 21.06838379 15.85012695 21.33989258 15.34228516 21.61962891 C13.04744568 22.88513781 10.75424092 24.15358478 8.4609375 25.421875 C7.63835449 25.8746582 6.81577148 26.32744141 5.96826172 26.79394531 C0.76390689 29.67373621 -4.29913106 32.68097187 -9.21875 36.03125 C-11.1640625 36.796875 -11.1640625 36.796875 -13.06640625 36.21484375 C-15.76894737 34.38798635 -18.29942069 32.39108005 -20.8515625 30.359375 C-25.70545431 26.61167756 -30.14760613 24.0947799 -36.1640625 22.796875 C-37.1128125 22.57 -38.0615625 22.343125 -39.0390625 22.109375 C-52.41038921 20.77224233 -64.74642424 22.28896007 -76.1640625 29.796875 C-84.44001304 36.83331101 -89.50114331 46.04552615 -91.1640625 56.796875 C-92.03841306 68.14909871 -90.98989863 79.17847677 -83.9140625 88.484375 C-83.13289062 89.38736328 -83.13289062 89.38736328 -82.3359375 90.30859375 C-81.1640625 91.796875 -81.1640625 91.796875 -81.1640625 93.796875 C-80.28621094 94.21646484 -80.28621094 94.21646484 -79.390625 94.64453125 C-77.31361583 95.71947459 -75.46763906 96.91719824 -73.5390625 98.234375 C-62.18718063 105.21062241 -48.48871174 105.41722388 -35.58984375 103.17578125 C-26.35748966 100.46038299 -18.78033464 94.65819426 -12.1640625 87.796875 C-11.23207031 88.48652344 -10.30007813 89.17617188 -9.33984375 89.88671875 C-1.04582762 96.00633107 7.32407502 101.98354565 15.8359375 107.796875 C9.15290422 122.3196204 -6.76148613 131.14552331 -21.12744141 136.53320312 C-42.63768235 143.82112294 -69.00717847 141.64762037 -89.3046875 131.8671875 C-106.16229654 123.16946798 -119.48586402 107.51298719 -125.3737793 89.50097656 C-132.07866331 67.9174013 -130.90203583 45.80970632 -120.57568359 25.60180664 C-110.67934206 7.51670128 -94.50669768 -4.28539072 -75.2890625 -11.078125 C-49.57346032 -18.39224702 -22.07624449 -15.37160728 0 0 Z " fill="#3E408C" transform="translate(751.1640625,184.203125)"/>
<path d="M0 0 C1.56047445 0.00015913 3.12095416 0.00585397 4.68139648 0.01586914 C5.91115456 0.01799156 5.91115456 0.01799156 7.16575623 0.02015686 C9.79470406 0.0257725 12.42356797 0.0383276 15.05249023 0.05102539 C16.8304838 0.05603838 18.60847869 0.06060163 20.38647461 0.06469727 C24.75434569 0.07574701 29.12215371 0.09302208 33.48999023 0.11352539 C42.14615555 20.04115481 50.45996901 40.09932969 58.67019653 60.21418762 C61.92563893 68.18797723 65.20609115 76.15142119 68.48999023 84.11352539 C77.2031699 63.89930713 85.79948526 43.64602169 94.17944336 23.29125977 C96.16520731 18.47630007 98.16549356 13.66757711 100.17749023 8.86352539 C100.50483154 8.07655273 100.83217285 7.28958008 101.16943359 6.47875977 C103.37341224 1.23010338 103.37341224 1.23010338 104.48999023 0.11352539 C107.15625054 0.02497378 109.79646138 -0.00172134 112.46264648 0.01586914 C113.26028915 0.01728409 114.05793182 0.01869904 114.87974548 0.02015686 C117.43736459 0.02577223 119.99489741 0.03832727 122.55249023 0.05102539 C124.28230668 0.05603841 126.0121245 0.06060166 127.74194336 0.06469727 C131.99132576 0.07574664 136.24064335 0.09302153 140.48999023 0.11352539 C139.94501428 5.44971231 138.56863677 9.92145065 136.41967773 14.84399414 C135.95020721 15.94761543 135.95020721 15.94761543 135.47125244 17.0735321 C134.44328213 19.48595645 133.40403692 21.89335373 132.36499023 24.30102539 C131.64120419 25.99543686 130.91839992 27.69026801 130.1965332 29.38549805 C129.0799121 32.00744392 127.9626905 34.62911515 126.84243774 37.24951172 C123.36539923 45.38400981 119.95383422 53.54499348 116.55981445 61.7144165 C115.61427432 63.99024854 114.66755019 66.26558453 113.72045898 68.54077148 C112.24090569 72.09529858 110.76212667 75.65014692 109.28369141 79.20513916 C106.13347166 86.77957171 102.9788658 94.35215616 99.8190918 101.92260742 C98.56318241 104.93780501 97.31177678 107.95482864 96.06143188 110.97233582 C94.90814847 113.75304663 93.751156 116.53220597 92.59356689 119.31112671 C92.03584692 120.65214714 91.47958979 121.99377716 90.92498779 123.33609009 C87.43699707 131.77537779 83.66525633 139.98800754 79.48999023 148.11352539 C71.89999023 148.11352539 64.30999023 148.11352539 56.48999023 148.11352539 C45.70493149 122.58066088 35.02473075 97.00627008 24.43267822 71.39276123 C23.01376941 67.96211625 21.59369444 64.53195434 20.17358398 61.10180664 C18.23002739 56.40684452 16.28732898 51.71152909 14.34545898 47.01586914 C12.58446355 42.75793073 10.82201458 38.50059974 9.05781555 34.24398804 C7.96464593 31.60634559 6.8719166 28.96852083 5.77920532 26.33068848 C5.0187495 24.49543196 4.25767785 22.66043065 3.49658203 20.82543945 C0.78241683 14.27242127 -1.8961239 7.707221 -4.51000977 1.11352539 C-3.51000977 0.11352539 -3.51000977 0.11352539 0 0 Z " fill="#3E408C" transform="translate(404.510009765625,172.886474609375)"/>
<path d="M0 0 C24.95031511 -1.04792613 24.95031511 -1.04792613 37 5 C38.01964844 5.49628906 39.03929687 5.99257812 40.08984375 6.50390625 C69.2265983 22.0660081 83.12999677 54.83591185 92.625 84.75 C93.13945679 86.33711792 93.13945679 86.33711792 93.66430664 87.95629883 C96.37223507 96.88562051 96.70267375 104.54530054 95.015625 113.703125 C93.67765068 121.0359807 93.69022389 128.32558974 93.75 135.75 C93.75564972 136.81480591 93.75564972 136.81480591 93.76141357 137.90112305 C93.86766182 154.97199453 96.32067026 170.21534752 100.66015625 186.7265625 C101.63647595 190.46791926 102.46980074 194.16423745 103 198 C100.38077367 195.67797414 99.11427333 193.45454879 97.72265625 190.2578125 C97.29831299 189.29004883 96.87396973 188.32228516 96.43676758 187.32519531 C95.98325928 186.26913086 95.52975098 185.21306641 95.0625 184.125 C94.57869873 183.0122168 94.09489746 181.89943359 93.59643555 180.75292969 C89.56464474 171.43034538 85.69423424 162.04290869 81.83203125 152.64916992 C50.42900732 76.10481865 50.42900732 76.10481865 4.01220703 8.08740234 C3.48739746 7.4630127 2.96258789 6.83862305 2.421875 6.1953125 C1.95362305 5.64891113 1.48537109 5.10250977 1.00292969 4.53955078 C0 3 0 3 0 0 Z " fill="#4FA9E6" transform="translate(0,0)"/>
<path d="M0 0 C11.88 0 23.76 0 36 0 C36 48.84 36 97.68 36 148 C24.12 148 12.24 148 0 148 C-1.7619502 146.2380498 -1.12614518 143.73315898 -1.12698364 141.34375 C-1.12980347 140.115354 -1.13262329 138.88695801 -1.13552856 137.62133789 C-1.13358397 136.24755845 -1.13153578 134.87377915 -1.12939453 133.5 C-1.13074853 132.06306921 -1.13252846 130.62613877 -1.13470459 129.18920898 C-1.13927906 125.27609411 -1.13748931 121.36300549 -1.1343255 117.44989014 C-1.13180197 113.3637281 -1.13413942 109.27756837 -1.13571167 105.19140625 C-1.13753339 98.32812088 -1.13512701 91.46484625 -1.13037109 84.6015625 C-1.12492847 76.65527994 -1.12669112 68.70902303 -1.1321975 60.76274109 C-1.13672857 53.95256836 -1.13737921 47.14240337 -1.13475883 40.33222961 C-1.13319602 36.25940531 -1.13300239 32.18659307 -1.13629532 28.11376953 C-1.13917395 24.28564243 -1.13719849 20.45754855 -1.13140106 16.62942505 C-1.13007342 15.22046972 -1.13046765 13.81151162 -1.13266373 12.40255737 C-1.13537504 10.48712257 -1.13138058 8.57168168 -1.12698364 6.65625 C-1.12660662 5.58181641 -1.12622959 4.50738281 -1.12584114 3.40039062 C-1 1 -1 1 0 0 Z " fill="#3D3F8A" transform="translate(562,173)"/>
<path d="M0 0 C11.88 0 23.76 0 36 0 C36.89995565 3.59982261 37.12347154 6.24244546 37.12025452 9.90985107 C37.12162918 11.11857376 37.12300385 12.32729645 37.12442017 13.57264709 C37.12088129 14.90878321 37.11724649 16.24491907 37.11352539 17.58105469 C37.11324326 18.99049375 37.11340175 20.39993297 37.1139679 21.80937195 C37.11425488 25.63340617 37.10837413 29.45740904 37.10139394 33.28143597 C37.09514394 37.27862578 37.0945553 41.27581631 37.09336853 45.27301025 C37.09026008 52.84127619 37.08205322 60.40952768 37.07201904 67.97778726 C37.06084283 76.59440091 37.05534365 85.21101524 37.05032361 93.82763433 C37.03987022 111.55176441 37.02228017 129.27588104 37 147 C33.14931868 148.05879368 29.64807255 148.12937409 25.64453125 148.1328125 C24.94228928 148.13376923 24.2400473 148.13472595 23.51652527 148.13571167 C22.03811554 148.1363902 20.55970278 148.13455875 19.08129883 148.13037109 C16.80999142 148.12499406 14.5388796 148.13033938 12.26757812 148.13671875 C10.83072873 148.13605838 9.39387945 148.13477808 7.95703125 148.1328125 C6.64710205 148.13168457 5.33717285 148.13055664 3.98754883 148.12939453 C1 148 1 148 0 147 C-0.0965683 145.10171764 -0.12187216 143.19979337 -0.12025452 141.29905701 C-0.12162918 140.0608017 -0.12300385 138.82254639 -0.12442017 137.54676819 C-0.12088056 136.16195655 -0.11724574 134.77714515 -0.11352539 133.39233398 C-0.11324352 131.94392906 -0.11340124 130.49552399 -0.1139679 129.04711914 C-0.11425589 125.10307686 -0.1083588 121.15906473 -0.10139394 117.21502948 C-0.09516078 113.09770531 -0.09455663 108.98038052 -0.09336853 104.86305237 C-0.0902551 97.06094138 -0.08204156 89.25884433 -0.07201904 81.45673949 C-0.06085826 72.57659696 -0.05534754 63.69645378 -0.05032361 54.81630599 C-0.03985895 36.54419448 -0.02151333 18.27210208 0 0 Z " fill="#3E408D" transform="translate(348,173)"/>
<path d="M0 0 C5.85045656 4.94281564 9.41332858 10.82737591 10.27734375 18.4453125 C10.5376434 25.25475142 9.55299494 30.74273059 5.30078125 36.16796875 C-0.00592593 41.89170597 -5.14756965 44.97624377 -13 45.375 C-19.88312081 45.05172231 -25.44769193 42.38862259 -30.4609375 37.71875 C-35.78439266 31.7737747 -37.25827635 24.86058451 -37 17 C-35.92681924 9.99608349 -32.43339305 4.49905256 -27 0 C-17.7449457 -5.27374683 -9.25364646 -5.28779798 0 0 Z " fill="#3E3F8A" transform="translate(593,117)"/>
<path d="M0 0 C6.09464022 5.69227563 8.62967005 11.37073164 9.32421875 19.56640625 C9.18084238 25.91081072 7.14026794 31.41340526 2.98828125 36.22265625 C-2.47106846 41.36525189 -6.93620411 43.58947217 -14.48828125 44.12890625 C-22.04031707 43.58947512 -26.50937508 41.36699945 -31.96484375 36.21875 C-36.62051511 30.83506826 -38.77292343 24.26957647 -38.359375 17.1640625 C-37.03161093 8.98783113 -33.71795345 3.63236193 -27.2734375 -1.5546875 C-18.72806921 -7.41228183 -8.04372449 -5.99308019 0 0 Z " fill="#3E408C" transform="translate(380.98828125,118.12109375)"/>
<path d="M0 0 C2.64 0 5.28 0 8 0 C8 0.33 8 0.66 8 1 C6.02 1.33 4.04 1.66 2 2 C1.67 49.52 1.34 97.04 1 146 C12.22 146 23.44 146 35 146 C35 98.15 35 50.3 35 1 C27.41 1 19.82 1 12 1 C12 0.67 12 0.34 12 0 C19.92 0 27.84 0 36 0 C36.89995565 3.59982261 37.12347154 6.24244546 37.12025452 9.90985107 C37.12162918 11.11857376 37.12300385 12.32729645 37.12442017 13.57264709 C37.12088129 14.90878321 37.11724649 16.24491907 37.11352539 17.58105469 C37.11324326 18.99049375 37.11340175 20.39993297 37.1139679 21.80937195 C37.11425488 25.63340617 37.10837413 29.45740904 37.10139394 33.28143597 C37.09514394 37.27862578 37.0945553 41.27581631 37.09336853 45.27301025 C37.09026008 52.84127619 37.08205322 60.40952768 37.07201904 67.97778726 C37.06084283 76.59440091 37.05534365 85.21101524 37.05032361 93.82763433 C37.03987022 111.55176441 37.02228017 129.27588104 37 147 C33.14931868 148.05879368 29.64807255 148.12937409 25.64453125 148.1328125 C24.94228928 148.13376923 24.2400473 148.13472595 23.51652527 148.13571167 C22.03811554 148.1363902 20.55970278 148.13455875 19.08129883 148.13037109 C16.80999142 148.12499406 14.5388796 148.13033938 12.26757812 148.13671875 C10.83072873 148.13605838 9.39387945 148.13477808 7.95703125 148.1328125 C6.64710205 148.13168457 5.33717285 148.13055664 3.98754883 148.12939453 C1 148 1 148 0 147 C-0.0965683 145.10171764 -0.12187216 143.19979337 -0.12025452 141.29905701 C-0.12162918 140.0608017 -0.12300385 138.82254639 -0.12442017 137.54676819 C-0.12088056 136.16195655 -0.11724574 134.77714515 -0.11352539 133.39233398 C-0.11324352 131.94392906 -0.11340124 130.49552399 -0.1139679 129.04711914 C-0.11425589 125.10307686 -0.1083588 121.15906473 -0.10139394 117.21502948 C-0.09516078 113.09770531 -0.09455663 108.98038052 -0.09336853 104.86305237 C-0.0902551 97.06094138 -0.08204156 89.25884433 -0.07201904 81.45673949 C-0.06085826 72.57659696 -0.05534754 63.69645378 -0.05032361 54.81630599 C-0.03985896 36.54419608 -0.02225929 18.27209916 0 0 Z " fill="#2C2C6E" transform="translate(348,173)"/>
<path d="M0 0 C0.33 0 0.66 0 1 0 C1.08975098 0.54076172 1.17950195 1.08152344 1.27197266 1.63867188 C3.79436847 16.62855085 7.13655333 31.30109518 11 46 C10.34 46 9.68 46 9 46 C7.08095109 42.50130124 5.16519979 39.00080705 3.25 35.5 C2.71117188 34.51773438 2.17234375 33.53546875 1.6171875 32.5234375 C-1.36655611 27.06536992 -4.26073504 21.58490915 -7 16 C-5.35 16 -3.7 16 -2 16 C-1.855625 15.195625 -1.71125 14.39125 -1.5625 13.5625 C-1 11 -1 11 0 10 C0.07205511 8.31391034 0.08386068 6.62499341 0.0625 4.9375 C0.04896484 3.55884766 0.04896484 3.55884766 0.03515625 2.15234375 C0.02355469 1.44207031 0.01195313 0.73179687 0 0 Z " fill="#3C3C81" transform="translate(125,214)"/>
<path d="M0 0 C0 0.33 0 0.66 0 1 C-7.75390476 2.11014055 -15.20232267 1.90220276 -22.97998047 1.31860352 C-27.1123 0.87221452 -27.1123 0.87221452 -31 2 C-32.81250532 2.02036523 -34.62569047 1.99168936 -36.4375 1.9375 C-42.4964924 1.87156175 -48.09664981 2.69847397 -54 4 C-53.67 4.66 -53.34 5.32 -53 6 C-59.75 7.125 -59.75 7.125 -62 6 C-64.22624593 6.3191623 -64.22624593 6.3191623 -66.625 6.9375 C-67.44226563 7.13214844 -68.25953125 7.32679687 -69.1015625 7.52734375 C-70.04128906 7.76130859 -70.04128906 7.76130859 -71 8 C-71 7.34 -71 6.68 -71 6 C-47.57490159 -0.05466785 -24.18939637 -3.04405887 0 0 Z M-62 7 C-60 8 -60 8 -60 8 Z " fill="#33336E" transform="translate(253,13)"/>
<path d="M0 0 C1.02867187 -0.00773438 2.05734375 -0.01546875 3.1171875 -0.0234375 C18.52028054 0.01575612 18.52028054 0.01575612 22.74609375 3.82324219 C23.15988281 4.29407227 23.57367188 4.76490234 24 5.25 C17.41303231 4.36329281 17.41303231 4.36329281 15.10327148 3.72973633 C2.66184739 0.89196519 -13.38686306 1.97942246 -25 7.25 C-25.81726563 7.61996094 -26.63453125 7.98992187 -27.4765625 8.37109375 C-29.34662415 9.27308462 -31.17860454 10.25338739 -33 11.25 C-33.99 11.745 -33.99 11.745 -35 12.25 C-34.3125 10.3125 -34.3125 10.3125 -33 8.25 C-30.4375 7.625 -30.4375 7.625 -28 7.25 C-27.67 6.59 -27.34 5.93 -27 5.25 C-18.57000176 0.19200106 -9.58750855 -0.07208653 0 0 Z " fill="#333378" transform="translate(240,152.75)"/>
<path d="M0 0 C0.66 0 1.32 0 2 0 C2.06058594 0.91523438 2.12117187 1.83046875 2.18359375 2.7734375 C2.26738281 3.96195313 2.35117188 5.15046875 2.4375 6.375 C2.51871094 7.55835938 2.59992188 8.74171875 2.68359375 9.9609375 C2.81084936 12.91518901 2.81084936 12.91518901 4 15 C4.02031901 16.64583976 3.99178494 18.29243023 3.9375 19.9375 C3.86626509 27.68175256 4.98849641 34.85221437 8 42 C9.04278771 45.12836314 8.87065373 46.85124477 8 50 C2.10650771 33.12931596 -0.21493562 17.911302 0 0 Z " fill="#313276" transform="translate(138,215)"/>
<path d="M0 0 C-1.57816838 3.15633677 -4.78582573 3.6337137 -7.9375 4.8125 C-13.51701251 6.95861987 -18.86072136 9.3026958 -24.14453125 12.1171875 C-26 13 -26 13 -28 13 C-28 12.34 -28 11.68 -28 11 C-25.47710333 9.27001371 -23.1487314 8.05070389 -20.25 7.0625 C-19.5075 6.711875 -18.765 6.36125 -18 6 C-17.25723969 4.02919843 -17.25723969 4.02919843 -17 2 C-12.79448642 -2.20551358 -5.42927071 -1.25290863 0 0 Z " fill="#3D3E89" transform="translate(260,15)"/>
<path d="M0 0 C3.47917182 2.31944788 4.29429766 4.26369964 6 8 C7.32 7.34 8.64 6.68 10 6 C11.65 12.6 13.3 19.2 15 26 C14.34 26 13.68 26 13 26 C11.01336816 22.42075685 9.03700964 18.83594259 7.0625 15.25 C6.49853516 14.23421875 5.93457031 13.2184375 5.35351562 12.171875 C4.81533203 11.1921875 4.27714844 10.2125 3.72265625 9.203125 C2.97640991 7.85202637 2.97640991 7.85202637 2.21508789 6.47363281 C1.13983402 4.28466913 0.46896979 2.38129738 0 0 Z " fill="#3A3975" transform="translate(121,234)"/>
<path d="M0 0 C0.33 0.66 0.66 1.32 1 2 C0.34 2 -0.32 2 -1 2 C-2.01111093 5.04913228 -2.01111093 5.04913228 -1 8 C-3.8919594 8.96398647 -5.9994375 9 -9 9 C-9.33 10.32 -9.66 11.64 -10 13 C-9.67 12.67 -9.34 12.34 -9 12 C-8.01 12.33 -7.02 12.66 -6 13 C-5.67 13.99 -5.34 14.98 -5 16 C-5.68707031 15.96519531 -6.37414062 15.93039063 -7.08203125 15.89453125 C-7.98308594 15.86746094 -8.88414062 15.84039062 -9.8125 15.8125 C-10.70582031 15.77769531 -11.59914062 15.74289063 -12.51953125 15.70703125 C-15.46013665 16.05434685 -16.10494854 16.83178796 -18 19 C-18.66 19 -19.32 19 -20 19 C-18.41370889 14.89885714 -15.44943144 12.36388131 -12.25 9.5 C-11.73695313 9.02691406 -11.22390625 8.55382813 -10.6953125 8.06640625 C-7.32122544 5.0059906 -3.84579651 2.44104449 0 0 Z " fill="#3B3C84" transform="translate(141,39)"/>
<path d="M0 0 C0.33 0 0.66 0 1 0 C1.81590057 3.37418714 2.6271087 6.74948581 3.4375 10.125 C3.66759766 11.07632813 3.89769531 12.02765625 4.13476562 13.0078125 C5.24835719 17.65584687 6.30666853 22.2662196 7 27 C4.5801837 24.81351237 3.26745424 22.81663564 1.95703125 19.83984375 C1.60576172 19.04642578 1.25449219 18.25300781 0.89257812 17.43554688 C0.53615234 16.61119141 0.17972656 15.78683594 -0.1875 14.9375 C-0.55552734 14.10927734 -0.92355469 13.28105469 -1.30273438 12.42773438 C-4 6.27756841 -4 6.27756841 -4 4 C-2.68 4 -1.36 4 0 4 C0 2.68 0 1.36 0 0 Z " fill="#5491CB" transform="translate(96,171)"/>
<path d="M0 0 C11.88 0 23.76 0 36 0 C34.875 7.875 34.875 7.875 33.37109375 11.18359375 C33.05849609 11.88291016 32.74589844 12.58222656 32.42382812 13.30273438 C32.09833984 14.00720703 31.77285156 14.71167969 31.4375 15.4375 C31.10814453 16.16904297 30.77878906 16.90058594 30.43945312 17.65429688 C29.63422894 19.43979399 28.81822154 21.22042155 28 23 C26.70073723 18.79232188 27.65057848 16.58224102 29.3125 12.5 C29.76238281 11.3759375 30.21226562 10.251875 30.67578125 9.09375 C31.71140082 6.67424942 32.8099969 4.3438975 34 2 C33.04109863 2.01047363 32.08219727 2.02094727 31.09423828 2.03173828 C27.54219281 2.06789328 23.99016366 2.09088393 20.43798828 2.10986328 C18.89954902 2.11993118 17.36112893 2.13358646 15.82275391 2.15087891 C13.61355867 2.17509317 11.40461605 2.18647491 9.1953125 2.1953125 C8.50567413 2.20563507 7.81603577 2.21595764 7.10549927 2.22659302 C5.40199094 2.22699478 3.69914057 2.12191026 2 2 C1.34 1.34 0.68 0.68 0 0 Z " fill="#313170" transform="translate(509,173)"/>
<path d="M0 0 C5.40838443 3.56879789 10.74979781 7.20198139 16 11 C15.34 11.33 14.68 11.66 14 12 C11.43406472 10.58760023 9.0447667 8.96770436 6.60546875 7.34765625 C3.70028568 5.84497535 2.21730328 5.49745826 -1 6 C-3.08361153 7.27863614 -3.08361153 7.27863614 -5 9 C-6.53427519 10.05252325 -8.07609671 11.09412457 -9.625 12.125 C-10.40101563 12.64320313 -11.17703125 13.16140625 -11.9765625 13.6953125 C-14 15 -14 15 -16 16 C-16.99 15.34 -17.98 14.68 -19 14 C-18.35933594 13.70867187 -17.71867188 13.41734375 -17.05859375 13.1171875 C-10.15748305 9.84661641 -4.29600982 6.44401473 0 0 Z " fill="#3A3A77" transform="translate(738,272)"/>
<path d="M0 0 C0.66 0 1.32 0 2 0 C1.34474534 2.84663748 0.48067322 5.49111929 -0.6015625 8.203125 C-1.08496094 9.41597168 -1.08496094 9.41597168 -1.578125 10.65332031 C-2.09632813 11.93867676 -2.09632813 11.93867676 -2.625 13.25 C-3.15480469 14.57016113 -3.15480469 14.57016113 -3.6953125 15.91699219 C-6.96709335 24.01757101 -10.43555367 32.02455133 -14 40 C-14.89716815 37.50723534 -15.09863827 36.29954886 -14.2578125 33.74609375 C-13.88398438 32.98425781 -13.51015625 32.22242188 -13.125 31.4375 C-11.92324598 28.94575129 -10.87746367 26.63239102 -10 24 C-10.33 23.34 -10.66 22.68 -11 22 C-10.34 22 -9.68 22 -9 22 C-7.59216816 19.37204724 -6.49227666 16.95365998 -6 14 C-6.33 13.34 -6.66 12.68 -7 12 C-6.01 12 -5.02 12 -4 12 C-3.79503906 11.38511719 -3.59007812 10.77023437 -3.37890625 10.13671875 C-2.25260417 6.7578125 -1.12630208 3.37890625 0 0 Z " fill="#383776" transform="translate(500,278)"/>
<path d="M0 0 C0.66 0 1.32 0 2 0 C2.66 0.66 3.32 1.32 4 2 C6.10820797 1.6814823 6.10820797 1.6814823 8 1 C8.50367757 2.45706726 9.00282556 3.91570096 9.5 5.375 C9.7784375 6.18710937 10.056875 6.99921875 10.34375 7.8359375 C11 10 11 10 11 12 C12.27620359 15.14736836 12.27620359 15.14736836 15 17 C15.625 20.0625 15.625 20.0625 16 23 C12.75287389 19.97756342 10.40286631 16.78412692 8 13.0625 C6.01633057 9.99788571 4.06070951 7.07430591 1.75 4.24609375 C0 2 0 2 0 0 Z " fill="#55A8DE" transform="translate(12,16)"/>
<path d="M0 0 C1.48303997 4.42960624 -0.1440125 6.82402812 -2 11 C-1.67 11.66 -1.34 12.32 -1 13 C-1.433125 13.350625 -1.86625 13.70125 -2.3125 14.0625 C-4.2001572 16.22981012 -5.17930634 18.44572067 -6.23828125 21.1015625 C-6.98826401 22.97075029 -7.83751764 24.79911196 -8.6875 26.625 C-9.90793937 29.76327266 -10.30066346 31.69270192 -10 35 C-11.65 35.66 -13.3 36.32 -15 37 C-12.48998474 28.90630167 -9.18401726 21.19978454 -5.8125 13.4375 C-5.24770722 12.12970392 -4.68325152 10.82176222 -4.11914062 9.51367188 C-2.74997252 6.34076099 -1.37626474 3.16984025 0 0 Z " fill="#3B3B79" transform="translate(504,184)"/>
<path d="M0 0 C2 3 2 3 1.625 5.4375 C1.41875 6.283125 1.2125 7.12875 1 8 C1 9.32 1 10.64 1 12 C0.01 12.495 0.01 12.495 -1 13 C-3.23577029 18.8239471 -3.24068486 24.25725868 -3.125 30.4375 C-3.11597656 31.35982422 -3.10695313 32.28214844 -3.09765625 33.23242188 C-3.0742766 35.48855809 -3.04150916 37.74413684 -3 40 C-3.99 40.495 -3.99 40.495 -5 41 C-5.99163386 11.98326772 -5.99163386 11.98326772 0 0 Z " fill="#383877" transform="translate(627,218)"/>
<path d="M0 0 C2.64 0 5.28 0 8 0 C8.125 4.75 8.125 4.75 7 7 C9.0072908 10.0109362 9.83884224 10.63016497 13 12 C12.34 13.32 11.68 14.64 11 16 C9.15750794 13.90326797 7.32606023 11.79846151 5.5 9.6875 C4.97535156 9.09259766 4.45070313 8.49769531 3.91015625 7.88476562 C-0 3.33984375 -0 3.33984375 0 0 Z " fill="#52A9E4" transform="translate(0,0)"/>
<path d="M0 0 C1.65 0 3.3 0 5 0 C0.23327968 4.14937438 -5.12192312 7.20970886 -10.5625 10.375 C-11.50802734 10.94605469 -12.45355469 11.51710937 -13.42773438 12.10546875 C-14.33974609 12.63527344 -15.25175781 13.16507813 -16.19140625 13.7109375 C-17.01842041 14.19868652 -17.84543457 14.68643555 -18.69750977 15.18896484 C-21 16 -21 16 -23.30053711 15.14306641 C-23.86135986 14.76585449 -24.42218262 14.38864258 -25 14 C-25 13.01 -25 12.02 -25 11 C-23.72125 11.04125 -22.4425 11.0825 -21.125 11.125 C-18.98128508 11.24212873 -18.98128508 11.24212873 -17 11 C-16.34 10.34 -15.68 9.68 -15 9 C-14.34 9 -13.68 9 -13 9 C-12.34 8.34 -11.68 7.68 -11 7 C-8.43564708 5.66875522 -5.82899921 4.44894081 -3.21484375 3.21875 C-0.86191757 2.19718812 -0.86191757 2.19718812 0 0 Z " fill="#393976" transform="translate(761,205)"/>
<path d="M0 0 C0.33 0.99 0.66 1.98 1 3 C-0.03125 3.66 -1.0625 4.32 -2.125 5 C-7.95569227 9.16309063 -11.40356111 14.40903974 -14 21 C-14.99 21.33 -15.98 21.66 -17 22 C-17.1546875 23.1446875 -17.1546875 23.1446875 -17.3125 24.3125 C-18.04364039 27.17059424 -18.76951913 28.15742885 -21 30 C-19.18982297 18.35727045 -9.12174124 6.89340727 0 0 Z " fill="#3A3A74" transform="translate(649,188)"/>
<path d="M0 0 C1.56047445 0.00015913 3.12095416 0.00585397 4.68139648 0.01586914 C5.91115456 0.01799156 5.91115456 0.01799156 7.16575623 0.02015686 C9.79470406 0.0257725 12.42356797 0.0383276 15.05249023 0.05102539 C16.8304838 0.05603838 18.60847869 0.06060163 20.38647461 0.06469727 C24.75434569 0.07574701 29.12215371 0.09302208 33.48999023 0.11352539 C34.14999023 2.09352539 34.80999023 4.07352539 35.48999023 6.11352539 C34.48415894 5.13561035 34.48415894 5.13561035 33.45800781 4.13793945 C29.6998562 1.57459379 27.51876085 1.6509155 23.00170898 1.72290039 C22.29851028 1.72856018 21.59531158 1.73421997 20.87080383 1.74005127 C18.63898776 1.7623277 16.40881562 1.81250166 14.17749023 1.86352539 C12.65863332 1.88360196 11.13975108 1.90185071 9.62084961 1.91821289 C5.91003478 1.96216182 2.20017313 2.03112618 -1.51000977 2.11352539 C-0.85000977 4.42352539 -0.19000977 6.73352539 0.48999023 9.11352539 C-0.17000977 9.11352539 -0.83000977 9.11352539 -1.51000977 9.11352539 C-2.50000977 6.47352539 -3.49000977 3.83352539 -4.51000977 1.11352539 C-3.51000977 0.11352539 -3.51000977 0.11352539 0 0 Z " fill="#303068" transform="translate(404.510009765625,172.886474609375)"/>
<path d="M0 0 C0.33 0 0.66 0 1 0 C1.08636719 0.7734375 1.17273438 1.546875 1.26171875 2.34375 C2.16465462 9.03707281 3.29200124 14.90083221 8 20 C8.99 20.33 9.98 20.66 11 21 C12.66666667 22.66666667 14.33333333 24.33333333 16 26 C18.16620544 27.29519995 18.16620544 27.29519995 20 28 C13.75181087 28 10.49114226 25.64447896 6.0234375 21.375 C0.54333247 14.94275317 -0.53009889 8.21653277 0 0 Z " fill="#3C3B72" transform="translate(343,133)"/>
<path d="M0 0 C1.06154297 1.09248047 1.06154297 1.09248047 2.14453125 2.20703125 C4.88199618 4.88457903 7.70403605 7.29014629 10.6875 9.6875 C15.81944444 13.81944444 15.81944444 13.81944444 18 16 C14.62182575 16.84454356 12.32534757 17.10844919 9 16 C9 14.02 9 12.04 9 10 C8.38125 9.7525 7.7625 9.505 7.125 9.25 C4.64931313 7.79371361 4.04874998 6.62187494 3 4 C2.34 4 1.68 4 1 4 C0.67 2.68 0.34 1.36 0 0 Z " fill="#3A3A7A" transform="translate(188,263)"/>
<path d="M0 0 C4.6875 0.78125 4.6875 0.78125 9.375 1.5625 C10.674375 1.7790625 10.674375 1.7790625 12 2 C12.33 2.99 12.66 3.98 13 5 C16.465 4.505 16.465 4.505 20 4 C19.67 4.99 19.34 5.98 19 7 C19.38932856 9.14255793 19.38932856 9.14255793 20 11 C16.74870192 9.88236628 13.99693956 8.41752711 11.125 6.5625 C7.53279662 4.25420201 3.96656288 2.57009781 0 1 C0 0.67 0 0.34 0 0 Z " fill="#363881" transform="translate(264,158)"/>
<path d="M0 0 C0 0.33 0 0.66 0 1 C-1.02738281 1.15855469 -2.05476563 1.31710938 -3.11328125 1.48046875 C-11.75193134 2.90248166 -19.19288812 4.86441451 -27 9 C-28.33242569 9.66847887 -29.66544455 10.33578318 -31 11 C-30.3125 9.0625 -30.3125 9.0625 -29 7 C-26.4375 6.375 -26.4375 6.375 -24 6 C-23.67 5.34 -23.34 4.68 -23 4 C-15.53002738 -0.48198357 -8.44870607 -1.53612838 0 0 Z " fill="#38386E" transform="translate(236,154)"/>
<path d="M0 0 C1.32 0 2.64 0 4 0 C4.33 2.97 4.66 5.94 5 9 C5.66 9 6.32 9 7 9 C8.25664978 11.90600261 9 13.79604584 9 17 C9.66 17 10.32 17 11 17 C11 18.98 11 20.96 11 23 C9.35505097 20.53257645 8.09779874 18.24999004 6.8359375 15.5859375 C6.43632813 14.74289063 6.03671875 13.89984375 5.625 13.03125 C5.2125 12.1546875 4.8 11.278125 4.375 10.375 C3.95476563 9.49070312 3.53453125 8.60640625 3.1015625 7.6953125 C0 1.12966721 0 1.12966721 0 0 Z " fill="#60A5D2" transform="translate(48,75)"/>
<path d="M0 0 C9.93231898 0.51374064 19.61351577 3.60868871 28 9 C26 10 26 10 23.79296875 9.29296875 C22.93316406 8.92816406 22.07335937 8.56335938 21.1875 8.1875 C20.33542969 7.83042969 19.48335937 7.47335938 18.60546875 7.10546875 C16.85496511 6.36275131 15.10758738 5.61262682 13.36328125 4.85546875 C10.94797469 3.81222865 10.94797469 3.81222865 8 4.125 C4.1647436 3.96519765 2.73968361 2.57852575 0 0 Z " fill="#353674" transform="translate(716,171)"/>
<path d="M0 0 C0.33 0 0.66 0 1 0 C0.99476318 0.56396484 0.98952637 1.12792969 0.98413086 1.70898438 C0.96312733 4.30597789 0.95026638 6.90295344 0.9375 9.5 C0.92912109 10.386875 0.92074219 11.27375 0.91210938 12.1875 C0.89236404 17.55823086 1.21164107 22.68633663 2 28 C-2.41472388 23.00944257 -2.1528888 17.284994 -2.1875 10.875 C-2.20167969 9.67617187 -2.21585938 8.47734375 -2.23046875 7.2421875 C-2.01401445 4.19715247 -1.60279273 2.54672995 0 0 Z " fill="#393975" transform="translate(659,235)"/>
<path d="M0 0 C4.94515667 2.62711448 8.87775489 6.26645294 13 10 C12.01 10.495 12.01 10.495 11 11 C4.25806452 8.51612903 4.25806452 8.51612903 3 6 C2.01 5.67 1.02 5.34 0 5 C0.33 4.67 0.66 4.34 1 4 C0.34 3.34 -0.32 2.68 -1 2 C-0.67 1.34 -0.34 0.68 0 0 Z " fill="#55A2D5" transform="translate(45,10)"/>
<path d="M0 0 C0.33 0.66 0.66 1.32 1 2 C3.18146145 2.61797251 3.18146145 2.61797251 5.75 3 C9.38727719 3.65658585 12.62903369 4.42688239 16 6 C16 6.33 16 6.66 16 7 C8.38842363 6.48396092 -2.41222706 5.58777294 -8 0 C-4.97878489 -0.97110486 -2.99536737 -1.13617383 0 0 Z " fill="#383A73" transform="translate(672,316)"/>
<path d="M0 0 C0 0.66 0 1.32 0 2 C-0.639375 2.12375 -1.27875 2.2475 -1.9375 2.375 C-2.618125 2.58125 -3.29875 2.7875 -4 3 C-4.33 3.66 -4.66 4.32 -5 5 C-6.6476038 5.71247732 -8.31763529 6.37400383 -10 7 C-11.34050052 7.65213539 -12.67661368 8.31379969 -14 9 C-14 9.99 -14 10.98 -14 12 C-15.98 12 -17.96 12 -20 12 C-16.4218445 8.11303559 -13.04921544 5.66657912 -8.3125 3.1875 C-7.17425781 2.58292969 -6.03601563 1.97835937 -4.86328125 1.35546875 C-2 0 -2 0 0 0 Z M-14 10 C-12 11 -12 11 -12 11 Z " fill="#393978" transform="translate(670,176)"/>
<path d="M0 0 C1.40765625 0.10054688 1.40765625 0.10054688 2.84375 0.203125 C5.77719024 0.80706858 7.27038665 1.79382979 9.5 3.75 C8.68917969 3.55921875 7.87835938 3.3684375 7.04296875 3.171875 C-0.4771316 1.66610403 -5.33940666 1.70762148 -12.35546875 4.90234375 C-13.06316406 5.18207031 -13.77085937 5.46179688 -14.5 5.75 C-15.16 5.42 -15.82 5.09 -16.5 4.75 C-10.64017735 1.25664419 -6.94817024 -0.57265139 0 0 Z " fill="#333273" transform="translate(368.5,113.25)"/>
<path d="M0 0 C0.66 0.33 1.32 0.66 2 1 C2 4.52032428 1.29648649 5.4385343 -1 8 C-1.66 8 -2.32 8 -3 8 C-4.71329615 10.14713203 -4.71329615 10.14713203 -6.4375 12.8125 C-8.4448038 15.81695256 -10.3356715 18.54751413 -13 21 C-11.60173735 17.17900503 -9.82450795 13.9193224 -7.625 10.5 C-7.03976563 9.5821875 -6.45453125 8.664375 -5.8515625 7.71875 C-4.02104415 5.03090027 -2.06497197 2.51071482 0 0 Z " fill="#37396D" transform="translate(119,58)"/>
<path d="M0 0 C0.66 0.33 1.32 0.66 2 1 C1.34773438 1.61746094 0.69546875 2.23492187 0.0234375 2.87109375 C-5.4663039 8.19079891 -10.09119259 13.42176313 -14 20 C-14.33 19.34 -14.66 18.68 -15 18 C-5.29949239 2.64974619 -5.29949239 2.64974619 0 0 Z " fill="#383873" transform="translate(198,168)"/>
<path d="M0 0 C-2.26307691 1.53363072 -4.53416825 3.05184259 -6.8125 4.5625 C-7.45509766 5.00013672 -8.09769531 5.43777344 -8.75976562 5.88867188 C-10.4567518 7.00534154 -12.22577058 8.01064506 -14 9 C-14.99 8.67 -15.98 8.34 -17 8 C-16.54625 7.566875 -16.0925 7.13375 -15.625 6.6875 C-13.79975666 4.89201658 -13.79975666 4.89201658 -12 2 C-11.01 1.67 -10.02 1.34 -9 1 C-9 1.66 -9 2.32 -9 3 C-8.566875 2.525625 -8.13375 2.05125 -7.6875 1.5625 C-4.92991429 -0.9908201 -3.55007316 -1.18335772 0 0 Z " fill="#373779" transform="translate(304,306)"/>
<path d="M0 0 C0.66 0 1.32 0 2 0 C2 0.66 2 1.32 2 2 C2.66 2.33 3.32 2.66 4 3 C4.68346682 4.65984798 5.34588315 6.32836805 6 8 C7.2760552 10.37051793 8.63457517 12.67877779 10 15 C9.01 15.99 8.02 16.98 7 18 C5.82887054 15.37690901 4.66294036 12.75171858 3.5 10.125 C3.16613281 9.37863281 2.83226562 8.63226563 2.48828125 7.86328125 C2.17246094 7.14785156 1.85664063 6.43242187 1.53125 5.6953125 C1.23798828 5.03547363 0.94472656 4.37563477 0.64257812 3.69580078 C0 2 0 2 0 0 Z " fill="#38387A" transform="translate(454,303)"/>
<path d="M0 0 C2.97471127 1.48735563 3.23347249 3.63804716 4.4375 6.6875 C5.7909904 10.06921786 7.11725884 13.37102526 8.875 16.5625 C10 19 10 19 9 22 C6.03196167 19.03196167 4.93946582 15.41324818 3.375 11.5625 C3.05015625 10.78583984 2.7253125 10.00917969 2.390625 9.20898438 C2.08382813 8.46068359 1.77703125 7.71238281 1.4609375 6.94140625 C1.18040527 6.25763916 0.89987305 5.57387207 0.61083984 4.86938477 C0 3 0 3 0 0 Z " fill="#343578" transform="translate(406,186)"/>
<path d="M0 0 C4.88049925 3.9419417 9.0580583 8.11950075 13 13 C12.01 13 11.02 13 10 13 C9.360625 12.319375 8.72125 11.63875 8.0625 10.9375 C7.381875 10.298125 6.70125 9.65875 6 9 C3.78141747 9.13641377 3.78141747 9.13641377 2 10 C2 7 2 7 3 5 C2.2575 4.319375 2.2575 4.319375 1.5 3.625 C0 2 0 2 0 0 Z " fill="#3B3B7A" transform="translate(306,268)"/>
<path d="M0 0 C1.11375 0.3403125 1.11375 0.3403125 2.25 0.6875 C-0.7509592 3.15055142 -3.61188511 4.59819397 -7.25 5.9375 C-8.65765625 6.47117187 -8.65765625 6.47117187 -10.09375 7.015625 C-12.82674477 7.70691191 -14.14280344 7.64675156 -16.75 6.6875 C-16.07453125 6.43355469 -15.3990625 6.17960937 -14.703125 5.91796875 C-13.81109375 5.57378906 -12.9190625 5.22960937 -12 4.875 C-11.11828125 4.53855469 -10.2365625 4.20210938 -9.328125 3.85546875 C-6.71132964 2.78785532 -6.71132964 2.78785532 -4.59375 1.03125 C-2.75 -0.3125 -2.75 -0.3125 0 0 Z " fill="#373770" transform="translate(284.75,314.3125)"/>
<path d="M0 0 C0.66 0 1.32 0 2 0 C1.32512263 4.81919471 -0.57965909 8.91883866 -2.5625 13.3125 C-2.89185547 14.05306641 -3.22121094 14.79363281 -3.56054688 15.55664062 C-4.36917123 17.37311562 -5.18397116 19.18683931 -6 21 C-6.66 20.34 -7.32 19.68 -8 19 C-5.98939902 13.80757417 -3.60386728 8.80538186 -1.2421875 3.765625 C0.06828695 1.35326216 0.06828695 1.35326216 0 0 Z " fill="#393777" transform="translate(525,218)"/>
<path d="M0 0 C0.33 0.66 0.66 1.32 1 2 C-0.36328125 4.6015625 -0.36328125 4.6015625 -2.3125 7.625 C-2.94800781 8.62789062 -3.58351562 9.63078125 -4.23828125 10.6640625 C-4.81964844 11.43492187 -5.40101563 12.20578125 -6 13 C-6.66 13 -7.32 13 -8 13 C-8.66 14.32 -9.32 15.64 -10 17 C-10 13.1860872 -8.75122706 11.67890877 -6.6875 8.5 C-6.07261719 7.5409375 -5.45773438 6.581875 -4.82421875 5.59375 C-3.33098158 3.47060336 -1.90921561 1.73885484 0 0 Z " fill="#3B3A76" transform="translate(163,151)"/>
<path d="M0 0 C0.66 0 1.32 0 2 0 C1.18850786 3.69274513 -0.10391425 7.15369562 -1.4375 10.6875 C-1.86933594 11.84636719 -2.30117188 13.00523437 -2.74609375 14.19921875 C-4 17 -4 17 -6 18 C-6.33 16.02 -6.66 14.04 -7 12 C-6.01 12 -5.02 12 -4 12 C-3.79503906 11.38511719 -3.59007812 10.77023437 -3.37890625 10.13671875 C-2.25260417 6.7578125 -1.12630208 3.37890625 0 0 Z " fill="#33326E" transform="translate(500,278)"/>
<path d="M0 0 C1.65 1.32 3.3 2.64 5 4 C3.50902342 7.7952131 1.24299151 9.61042731 -2 12 C-1.855625 11.30132812 -1.71125 10.60265625 -1.5625 9.8828125 C-1.376875 8.97273438 -1.19125 8.06265625 -1 7.125 C-0.814375 6.22007812 -0.62875 5.31515625 -0.4375 4.3828125 C0.06019595 2.07592097 0.06019595 2.07592097 0 0 Z " fill="#3A3A77" transform="translate(319,282)"/>
<path d="M0 0 C2.57833439 2.57833439 3.3761471 5.10325781 4.6875 8.5 C5.14511719 9.6653125 5.60273438 10.830625 6.07421875 12.03125 C7 15 7 15 6 17 C4.02 13.535 4.02 13.535 2 10 C1.34 10 0.68 10 0 10 C0 6.7 0 3.4 0 0 Z " fill="#373676" transform="translate(465,240)"/>
<path d="M0 0 C0.33 0 0.66 0 1 0 C2.35345328 7.25943122 2.35345328 7.25943122 0.6875 10.75 C0.130625 11.4925 -0.42625 12.235 -1 13 C-1.68401231 14.32451855 -2.35373015 15.6566618 -3 17 C-3.40368295 10.54107286 -2.5915262 5.93891422 0 0 Z " fill="#35397A" transform="translate(100,90)"/>
<path d="M0 0 C2.81631641 2.49493496 4.40955981 5.26562818 6.1875 8.5625 C6.71730469 9.53316406 7.24710937 10.50382812 7.79296875 11.50390625 C9 14 9 14 9 16 C8.01 16 7.02 16 6 16 C5.34 13.03 4.68 10.06 4 7 C3.01 7 2.02 7 1 7 C0.67 4.69 0.34 2.38 0 0 Z " fill="#549CCF" transform="translate(71,38)"/>
<path d="M0 0 C0.66 0 1.32 0 2 0 C3.17112946 2.62309099 4.33705964 5.24828142 5.5 7.875 C5.83386719 8.62136719 6.16773438 9.36773437 6.51171875 10.13671875 C6.82753906 10.85214844 7.14335937 11.56757813 7.46875 12.3046875 C7.76201172 12.96452637 8.05527344 13.62436523 8.35742188 14.30419922 C9 16 9 16 9 18 C8.01 17.67 7.02 17.34 6 17 C4.9375 14.25 4.9375 14.25 4 11 C3.62875 10.113125 3.2575 9.22625 2.875 8.3125 C2 6 2 6 2 3 C1.34 2.67 0.68 2.34 0 2 C0 1.34 0 0.68 0 0 Z " fill="#353573" transform="translate(439,180)"/>
<path d="M0 0 C1.65 1.32 3.3 2.64 5 4 C3.61811547 7.21043882 2.07578097 9.04936365 -0.625 11.25 C-1.25664062 11.77078125 -1.88828125 12.2915625 -2.5390625 12.828125 C-3.02117187 13.21484375 -3.50328125 13.6015625 -4 14 C-3.75 11.625 -3.75 11.625 -3 9 C-0.9375 7.6875 -0.9375 7.6875 1 7 C1 4.37886292 0.68707555 2.49064888 0 0 Z " fill="#37386D" transform="translate(320,152)"/>
<path d="M0 0 C0.33 0.66 0.66 1.32 1 2 C-0.07507629 3.29854721 -1.16043736 4.58858361 -2.25 5.875 C-2.85328125 6.59429687 -3.4565625 7.31359375 -4.078125 8.0546875 C-5.97087634 9.97052118 -7.53657727 10.96449045 -10 12 C-9.34 10.68 -8.68 9.36 -8 8 C-7.34 8 -6.68 8 -6 8 C-6 6.35 -6 4.7 -6 3 C-5.34 2.67 -4.68 2.34 -4 2 C-4 2.66 -4 3.32 -4 4 C-2.68 2.68 -1.36 1.36 0 0 Z " fill="#3A3B78" transform="translate(386,148)"/>
<path d="M0 0 C1.39211215 4.17633644 -0.0464421 5.78960515 -1.9375 9.6875 C-2.50339844 10.86699219 -3.06929687 12.04648438 -3.65234375 13.26171875 C-4.09707031 14.16535156 -4.54179687 15.06898437 -5 16 C-5.66 15.34 -6.32 14.68 -7 14 C-2.8 2.8 -2.8 2.8 0 0 Z " fill="#353673" transform="translate(142,109)"/>
<path d="M0 0 C0.66 0.99 1.32 1.98 2 3 C1.49339844 3.88751953 1.49339844 3.88751953 0.9765625 4.79296875 C-1.27641158 8.78450953 -3.4619821 12.66558593 -5 17 C-5.66 16.67 -6.32 16.34 -7 16 C-4.69 10.72 -2.38 5.44 0 0 Z " fill="#35346E" transform="translate(483,234)"/>
<path d="M0 0 C3.43536181 1.42152903 4.80445333 3.07260444 7 6 C9.08334635 7.2516467 9.08334635 7.2516467 11 8 C10.34 9.32 9.68 10.64 9 12 C7.49707257 10.18992669 5.99772829 8.37687764 4.5 6.5625 C3.6646875 5.55316406 2.829375 4.54382813 1.96875 3.50390625 C0 1 0 1 0 0 Z " fill="#5AA2D1" transform="translate(2,4)"/>
<path d="M0 0 C1.65061775 3.30123549 0.026738 6.18864494 -1.03125 9.578125 C-2.1702461 12.42561524 -3.5580108 14.14745647 -6 16 C-5.52412884 9.97229862 -2.80277043 5.23321711 0 0 Z " fill="#373871" transform="translate(150,170)"/>
<path d="M0 0 C0.33 0 0.66 0 1 0 C1.33 2.97 1.66 5.94 2 9 C1.34 8.34 0.68 7.68 0 7 C0 8.98 0 10.96 0 13 C-1.99097846 10.01353231 -2.94124926 7.40312738 -4 4 C-2.68 4 -1.36 4 0 4 C0 2.68 0 1.36 0 0 Z " fill="#589AD0" transform="translate(96,171)"/>
<path d="M0 0 C1.20220203 3.53094302 0.79532349 6.12898982 0.0625 9.75 C-0.13214844 10.73484375 -0.32679687 11.7196875 -0.52734375 12.734375 C-0.68332031 13.48203125 -0.83929688 14.2296875 -1 15 C-1.66 15 -2.32 15 -3 15 C-3.36263859 9.1977825 -2.25684543 5.36000789 0 0 Z " fill="#34366C" transform="translate(128,145)"/>
<path d="M0 0 C3.36179774 1.44077046 5.59156268 3.24750021 8 6 C8 6.66 8 7.32 8 8 C5.5625 7.1875 5.5625 7.1875 3 6 C2.67 5.01 2.34 4.02 2 3 C0.02 3.66 -1.96 4.32 -4 5 C-2.68 3.35 -1.36 1.7 0 0 Z " fill="#36366D" transform="translate(298,260)"/>
<path d="M0 0 C2.90349865 1.70970478 3.89021838 2.6940042 5.046875 5.91796875 C5.27890625 6.99691406 5.5109375 8.07585937 5.75 9.1875 C5.99234375 10.27417969 6.2346875 11.36085938 6.484375 12.48046875 C6.73960937 13.72763672 6.73960937 13.72763672 7 15 C6.34 15 5.68 15 5 15 C4.16260219 12.8765984 3.33019717 10.7512272 2.5 8.625 C1.80390625 6.84996094 1.80390625 6.84996094 1.09375 5.0390625 C0 2 0 2 0 0 Z " fill="#363671" transform="translate(432,249)"/>
<path d="M0 0 C2.475 0.495 2.475 0.495 5 1 C5 1.66 5 2.32 5 3 C5.99 3 6.98 3 8 3 C8 3.66 8 4.32 8 5 C9.65 5 11.3 5 13 5 C13 5.99 13 6.98 13 8 C7.73691968 6.58795406 4.2437012 4.31008693 0 1 C0 0.67 0 0.34 0 0 Z " fill="#3C3A74" transform="translate(651,308)"/>
<path d="M0 0 C0.763125 0.309375 1.52625 0.61875 2.3125 0.9375 C4.18789677 1.67893593 6.08684652 2.36228217 8 3 C9.9417843 5.87384077 11.45957258 8.89931133 13 12 C12.56429688 11.62488281 12.12859375 11.24976563 11.6796875 10.86328125 C11.08414062 10.35152344 10.48859375 9.83976563 9.875 9.3125 C8.92560547 8.49652344 8.92560547 8.49652344 7.95703125 7.6640625 C6.17588663 6.14955629 4.37365561 4.66581794 2.5625 3.1875 C1.716875 2.465625 0.87125 1.74375 0 1 C0 0.67 0 0.34 0 0 Z " fill="#363873" transform="translate(284,169)"/>
<path d="M0 0 C0.99 0.33 1.98 0.66 3 1 C-0.3 4.3 -3.6 7.6 -7 11 C-7.33 9.68 -7.66 8.36 -8 7 C-7.195625 6.54625 -6.39125 6.0925 -5.5625 5.625 C-2.91143428 4.25274335 -2.91143428 4.25274335 -2 2 C-1.34 2 -0.68 2 0 2 C0 1.34 0 0.68 0 0 Z " fill="#3C3A75" transform="translate(176,64)"/>
<path d="M0 0 C3.82423722 1.50237891 5.58863507 3.73298945 8 7 C8.5775 7.763125 9.155 8.52625 9.75 9.3125 C10.1625 9.869375 10.575 10.42625 11 11 C10.01 11 9.02 11 8 11 C5.95703125 8.84765625 5.95703125 8.84765625 3.8125 6.0625 C3.09707031 5.14597656 2.38164062 4.22945313 1.64453125 3.28515625 C0 1 0 1 0 0 Z " fill="#373772" transform="translate(157,284)"/>
<path d="M0 0 C0.33 0.66 0.66 1.32 1 2 C0.06421005 4.35981813 -0.93347808 6.69631264 -2 9 C-3.77706209 6.33440687 -4.87548273 3.9719385 -6 1 C-4.7934375 1.0309375 -4.7934375 1.0309375 -3.5625 1.0625 C-1.06645115 1.29633621 -1.06645115 1.29633621 0 0 Z " fill="#3E3C7F" transform="translate(535,197)"/>
<path d="M0 0 C0.66 0.66 1.32 1.32 2 2 C0.90220176 3.15193623 -0.20349446 4.29634937 -1.3125 5.4375 C-1.92738281 6.07558594 -2.54226563 6.71367187 -3.17578125 7.37109375 C-5 9 -5 9 -8 10 C-8.33 9.34 -8.66 8.68 -9 8 C-8.01 8 -7.02 8 -6 8 C-6.33 7.01 -6.66 6.02 -7 5 C-6.34 4.67 -5.68 4.34 -5 4 C-4.34 4.33 -3.68 4.66 -3 5 C-3 4.34 -3 3.68 -3 3 C-1.5 1.375 -1.5 1.375 0 0 Z " fill="#32376D" transform="translate(306,173)"/>
<path d="M0 0 C3 0.5 3 0.5 6 1 C7.0725 1.0825 8.145 1.165 9.25 1.25 C10.61125 1.62125 10.61125 1.62125 12 2 C13.375 4.5625 13.375 4.5625 14 7 C9.25981099 5.16508812 4.63586749 3.08058541 0 1 C0 0.67 0 0.34 0 0 Z " fill="#35356F" transform="translate(264,158)"/>
<path d="M0 0 C2.475 0.99 2.475 0.99 5 2 C4.67 2.66 4.34 3.32 4 4 C4.474375 4.928125 4.94875 5.85625 5.4375 6.8125 C6.98078978 9.96081114 7.30199784 11.57735783 7 15 C4.99615009 11.99422513 3.73880258 9.15022736 2.375 5.8125 C1.92898437 4.72582031 1.48296875 3.63914063 1.0234375 2.51953125 C0.68570313 1.68808594 0.34796875 0.85664063 0 0 Z " fill="#5EA1CF" transform="translate(73,131)"/>
<path d="M0 0 C-1.62017842 1.33918806 -3.24629343 2.6711969 -4.875 4 C-6.23238281 5.11375 -6.23238281 5.11375 -7.6171875 6.25 C-10 8 -10 8 -12 8 C-10.67667681 4.03003043 -7.9910601 2.23963605 -4.75390625 -0.14453125 C-3 -1 -3 -1 0 0 Z " fill="#383973" transform="translate(200,48)"/>
<path d="M0 0 C5 2 5 2 6.3125 3.875 C7 6 7 6 7 10 C6.34 10 5.68 10 5 10 C3.35 6.7 1.7 3.4 0 0 Z " fill="#383874" transform="translate(112,219)"/>
<path d="M0 0 C6.625 -0.125 6.625 -0.125 10 1 C10 1.66 10 2.32 10 3 C10.99 3.33 11.98 3.66 13 4 C10.01316063 5.49341969 8.04839022 4.40648676 4.875 3.5625 C3.77929688 3.27503906 2.68359375 2.98757812 1.5546875 2.69140625 C0.71164062 2.46324219 -0.13140625 2.23507813 -1 2 C-0.67 1.34 -0.34 0.68 0 0 Z " fill="#353573" transform="translate(710,204)"/>
<path d="M0 0 C0.66 0.33 1.32 0.66 2 1 C1.67 2.65 1.34 4.3 1 6 C0.34 6 -0.32 6 -1 6 C-0.67 4.02 -0.34 2.04 0 0 Z M-3 2 C-1.875 3.6875 -1.875 3.6875 -1 6 C-1.875 8.75 -1.875 8.75 -3 11 C-4.10844919 7.67465243 -3.84454356 5.37817425 -3 2 Z " fill="#354593" transform="translate(99,101)"/>
<path d="M0 0 C0.5534764 2.07553648 1 3.84365964 1 6 C1.66 6.33 2.32 6.66 3 7 C1.5459375 7.433125 1.5459375 7.433125 0.0625 7.875 C-3.10664203 8.64214682 -3.10664203 8.64214682 -4 11 C-3.39301257 6.87248551 -1.96189209 3.6678852 0 0 Z " fill="#363877" transform="translate(105,79)"/>
<path d="M0 0 C0.66 0 1.32 0 2 0 C2 0.66 2 1.32 2 2 C2.66 2 3.32 2 4 2 C4.28875 2.639375 4.5775 3.27875 4.875 3.9375 C5.82823451 6.15206079 5.82823451 6.15206079 8 7 C8.625 10.0625 8.625 10.0625 9 13 C4.76568424 9.39299028 2.5307901 4.85413839 0 0 Z " fill="#61A4D2" transform="translate(19,26)"/>
<path d="M0 0 C-1.95585325 1.00484204 -3.91476237 2.00373805 -5.875 3 C-6.96554688 3.556875 -8.05609375 4.11375 -9.1796875 4.6875 C-12 6 -12 6 -14 6 C-14 5.34 -14 4.68 -14 4 C-9.39112862 0.83963105 -5.52259494 -1.6345947 0 0 Z " fill="#373870" transform="translate(246,22)"/>
<path d="M0 0 C0 3 0 3 -2.25 5.75 C-5 8 -5 8 -7.3125 7.8125 C-8.1478125 7.4103125 -8.1478125 7.4103125 -9 7 C-6.03716687 4.61327331 -3.05729491 2.2646629 0 0 Z " fill="#3A3A7F" transform="translate(314,294)"/>
<path d="M0 0 C1.32 0.33 2.64 0.66 4 1 C4.66666667 5 5.33333333 9 6 13 C3.59195432 10.59195432 2.99231241 8.57796225 1.875 5.375 C1.52179688 4.37210937 1.16859375 3.36921875 0.8046875 2.3359375 C0.53914063 1.56507813 0.27359375 0.79421875 0 0 Z " fill="#3C3B77" transform="translate(438,265)"/>
<path d="M0 0 C4.27454425 2.7479213 8.14126153 5.69250989 12 9 C7.40021518 9 4.51795485 6.31556087 1.125 3.375 C0 2 0 2 0 0 Z " fill="#333470" transform="translate(747,182)"/>
<path d="M0 0 C1.32 0 2.64 0 4 0 C3.79375 0.721875 3.5875 1.44375 3.375 2.1875 C2.94047789 5.44641585 3.58319331 7.08304504 5 10 C4.01 10.495 4.01 10.495 3 11 C1.68 7.7 0.36 4.4 -1 1 C-0.67 0.67 -0.34 0.34 0 0 Z " fill="#38377A" transform="translate(416,209)"/>
<path d="M0 0 C0.33 0 0.66 0 1 0 C1 3.3 1 6.6 1 10 C-0.65 10.66 -2.3 11.32 -4 12 C-2.66666667 8 -1.33333333 4 0 0 Z " fill="#333370" transform="translate(493,209)"/>
<path d="M0 0 C1.32 0.33 2.64 0.66 4 1 C4.33 2.32 4.66 3.64 5 5 C4.01 5.66 3.02 6.32 2 7 C0.5393715 4.35261084 0 3.10551666 0 0 Z " fill="#3F408E" transform="translate(125,236)"/>
<path d="M0 0 C0.66 0.66 1.32 1.32 2 2 C1.5504955 3.31554985 1.09010284 4.62738358 0.625 5.9375 C0.36976563 6.66839844 0.11453125 7.39929688 -0.1484375 8.15234375 C-1 10 -1 10 -3 11 C-3 9.35 -3 7.7 -3 6 C-2.34 6 -1.68 6 -1 6 C-0.67 4.02 -0.34 2.04 0 0 Z " fill="#30316B" transform="translate(601,141)"/>
<path d="M0 0 C3.91211733 1.15585285 6.8745041 2.35534962 10 5 C7.07171074 5 4.79597286 4.86029934 2 4 C0.6875 1.9375 0.6875 1.9375 0 0 Z " fill="#353679" transform="translate(206,279)"/>
<path d="M0 0 C1.43861294 0.08746284 2.87597508 0.19565348 4.3125 0.3125 C5.11300781 0.37050781 5.91351563 0.42851562 6.73828125 0.48828125 C9.36272334 1.08206694 10.30820672 1.95780294 12 4 C7.6822542 3.49202991 3.96697886 2.80317221 0 1 C0 0.67 0 0.34 0 0 Z " fill="#353576" transform="translate(198,317)"/>
<path d="M0 0 C0.99 0.33 1.98 0.66 3 1 C2.5020163 4.73487777 2.12508244 6.81237635 0 10 C-0.19412181 8.52168779 -0.38012131 7.04230684 -0.5625 5.5625 C-0.66691406 4.73878906 -0.77132812 3.91507813 -0.87890625 3.06640625 C-0.91886719 2.38449219 -0.95882812 1.70257813 -1 1 C-0.67 0.67 -0.34 0.34 0 0 Z " fill="#363679" transform="translate(131,128)"/>
<path d="M0 0 C-1.26239712 0.86658615 -2.53527501 1.71792059 -3.8125 2.5625 C-4.87404297 3.27599609 -4.87404297 3.27599609 -5.95703125 4.00390625 C-8 5 -8 5 -11 4 C-8.94006922 -0.11986157 -4.11800376 -1.37266792 0 0 Z " fill="#373872" transform="translate(224,33)"/>
<path d="M0 0 C3.76024616 2.50683077 4.39192086 4.86493934 6 9 C3 8 3 8 1.3125 5.625 C0 3 0 3 0 0 Z " fill="#363672" transform="translate(121,234)"/>
<path d="M0 0 C0 4.05480631 -1.54870092 5.84832975 -4 9 C-4.99 9 -5.98 9 -7 9 C-5.44499019 5.18315774 -2.96404505 2.80804268 0 0 Z " fill="#363675" transform="translate(128,49)"/>
<path d="M0 0 C0.66 0.33 1.32 0.66 2 1 C0.02 3.31 -1.96 5.62 -4 8 C-4.33 7.34 -4.66 6.68 -5 6 C-2.59016393 1.29508197 -2.59016393 1.29508197 0 0 Z " fill="#393A79" transform="translate(764,294)"/>
<path d="M0 0 C0.66 0 1.32 0 2 0 C1.01 2.97 0.02 5.94 -1 9 C-2.32 8.34 -3.64 7.68 -5 7 C-4.0409375 6.1028125 -4.0409375 6.1028125 -3.0625 5.1875 C-0.79689611 3.09189663 -0.79689611 3.09189663 0 0 Z " fill="#3A397D" transform="translate(504,269)"/>
<path d="M0 0 C0 0.66 0 1.32 0 2 C-3.3 2.33 -6.6 2.66 -10 3 C-9 1 -9 1 -6.125 -0.1875 C-3 -1 -3 -1 0 0 Z " fill="#38386B" transform="translate(698,204)"/>
<path d="M0 0 C0.66 0.66 1.32 1.32 2 2 C0.68 4.97 -0.64 7.94 -2 11 C-3.28485596 5.86057616 -2.22194431 4.62164416 0 0 Z " fill="#3B3973" transform="translate(539,185)"/>
<path d="M0 0 C-0.33 0.99 -0.66 1.98 -1 3 C-3.97 2.67 -6.94 2.34 -10 2 C-6.3558226 -0.4294516 -4.28758728 -0.16179575 0 0 Z " fill="#2D2F63" transform="translate(583,113)"/>
<path d="M0 0 C1.70884005 1.62339805 3.37446717 3.29319053 5 5 C5 5.66 5 6.32 5 7 C4.01 7.33 3.02 7.66 2 8 C0 2.25 0 2.25 0 0 Z " fill="#519FD1" transform="translate(66,31)"/>
<path d="M0 0 C2 1.375 2 1.375 4 3 C4 3.66 4 4.32 4 5 C4.99 5.33 5.98 5.66 7 6 C6.67 6.66 6.34 7.32 6 8 C5.01 7.34 4.02 6.68 3 6 C3 5.34 3 4.68 3 4 C1.68 3.34 0.36 2.68 -1 2 C-0.67 1.34 -0.34 0.68 0 0 Z " fill="#303069" transform="translate(666,273)"/>
<path d="M0 0 C0.66 0.99 1.32 1.98 2 3 C1.25 5.625 1.25 5.625 0 8 C-0.99 8.495 -0.99 8.495 -2 9 C-1.125 2.25 -1.125 2.25 0 0 Z " fill="#353772" transform="translate(627,218)"/>
<path d="M0 0 C2.33944736 0.28730055 4.6739143 0.61936779 7 1 C5.625 2.5 5.625 2.5 4 4 C3.34 4 2.68 4 2 4 C2 3.34 2 2.68 2 2 C1.01 1.67 0.02 1.34 -1 1 C-0.67 0.67 -0.34 0.34 0 0 Z " fill="#393979" transform="translate(675,208)"/>
<path d="M0 0 C1.32 1.32 2.64 2.64 4 4 C3.67 4.66 3.34 5.32 3 6 C1.35 5.67 -0.3 5.34 -2 5 C-2 4.34 -2 3.68 -2 3 C-1.01 3 -0.02 3 1 3 C0.67 2.01 0.34 1.02 0 0 Z " fill="#39387E" transform="translate(764,198)"/>
<path d="M0 0 C2.97 0.495 2.97 0.495 6 1 C5.67 1.66 5.34 2.32 5 3 C1.9375 3.625 1.9375 3.625 -1 4 C-0.67 2.68 -0.34 1.36 0 0 Z " fill="#2E3166" transform="translate(254,14)"/>
<path d="" fill="#000000" transform="translate(0,0)"/>
<path d="" fill="#000000" transform="translate(0,0)"/>
</svg>
