<svg width="1610" height="761" viewBox="0 0 1610 761" fill="none" xmlns="http://www.w3.org/2000/svg">
<path d="M178.5 292.105C104.5 120.105 38.8333 44.6053 0 8.10529C165.2 -43.0947 241.5 160.772 259 269.105C329.5 33.1053 600 8.10529 713 19.6053C522.2 104.805 423.167 229.772 397.5 281.605C314.5 412.605 336 583.605 355.5 649.105C276 516.105 228 400.605 178.5 292.105Z" fill="#5EB25E"/>
<path d="M355.5 649.105C276 516.105 225 426.105 259 269.105C329.5 33.1051 600 8.10511 713 19.6051C522.2 104.805 423.167 229.772 397.5 281.605C314.5 412.605 336 583.605 355.5 649.105Z" fill="#1E5F93"/>
<path d="M562 761C495.333 761 446.111 743.653 414.333 708.959C382.778 674.265 367 620.334 367 547.166C367 406.389 433 336 565 336C583 336 601.667 337.779 621 341.338C640.333 344.896 656.444 349.9 669.333 356.349C682.444 362.576 689 369.582 689 377.366C689 382.926 686.778 390.265 682.333 399.383C677.889 408.279 672.556 416.174 666.333 423.068C660.333 429.963 655 433.41 650.333 433.41C649.222 433.41 646.222 432.298 641.333 430.074C630.667 425.626 619.444 421.956 607.667 419.065C596.111 415.952 581.333 414.395 563.333 414.395C528.444 414.395 502.556 425.515 485.667 447.754C469 469.772 460.667 503.131 460.667 547.833C460.667 592.535 469.111 626.228 486 648.912C502.889 671.597 528.222 682.939 562 682.939C579.556 682.939 594.778 681.16 607.667 677.601C620.778 674.043 633.556 669.484 646 663.924C646.667 663.701 648.667 662.923 652 661.589C655.333 660.032 657.778 659.254 659.333 659.254C665.111 659.254 670.667 662.701 676 669.595C681.333 676.267 685.667 683.94 689 692.613C692.333 701.064 694 707.18 694 710.961C694 721.858 686.667 731.088 672 738.649C657.556 746.211 640 751.882 619.333 755.662C598.889 759.221 579.778 761 562 761Z" fill="#202B36"/>
<path d="M782.395 403.04C770.046 403.04 761.004 401.502 755.27 398.426C749.757 395.349 747 390.625 747 384.252V337.118C747 330.745 749.867 326.021 755.601 322.944C761.335 319.648 770.266 318 782.395 318H798.605C810.734 318 819.665 319.648 825.399 322.944C831.133 326.021 834 330.745 834 337.118V384.252C834 390.625 831.133 395.349 825.399 398.426C819.886 401.502 810.954 403.04 798.605 403.04H782.395ZM782.395 761C758.798 761 747 754.847 747 742.542V470.94C747 464.788 749.867 460.173 755.601 457.097C761.335 454.02 770.266 452.482 782.395 452.482H798.605C810.734 452.482 819.665 454.02 825.399 457.097C831.133 460.173 834 464.788 834 470.94V742.542C834 754.847 822.202 761 798.605 761H782.395Z" fill="#202B36"/>
<path d="M1019.16 761C1009.64 761 1001.94 760.091 996.055 758.274C990.393 756.456 986.769 753.161 985.184 748.39L889.378 466.198C889.152 464.834 888.699 463.017 888.019 460.745C887.34 458.245 887 456.428 887 455.292C887 450.748 889.944 447.453 895.833 445.408C901.722 443.136 911.008 442 923.691 442H943.396C953.135 442 960.949 443.022 966.838 445.067C972.727 446.885 976.351 450.066 977.709 454.61L1013.04 566.396C1014.17 570.486 1017.69 585.255 1023.57 610.702L1030.03 639.671H1032.75C1039.77 603.999 1045.32 579.574 1049.39 566.396L1085.07 454.61C1086.42 450.066 1089.94 446.885 1095.6 445.067C1101.49 443.022 1109.3 442 1119.04 442H1133.99C1146.44 442 1155.5 443.136 1161.17 445.408C1167.06 447.453 1170 450.748 1170 455.292C1170 458.927 1169.43 462.562 1168.3 466.198L1072.16 748.39C1070.8 752.934 1067.17 756.229 1061.28 758.274C1055.62 760.091 1048.03 761 1038.52 761H1019.16Z" fill="#202B36"/>
<path d="M1258.4 403.04C1246.05 403.04 1237 401.502 1231.27 398.426C1225.76 395.349 1223 390.625 1223 384.252V337.118C1223 330.745 1225.87 326.021 1231.6 322.944C1237.33 319.648 1246.27 318 1258.4 318H1274.6C1286.73 318 1295.67 319.648 1301.4 322.944C1307.13 326.021 1310 330.745 1310 337.118V384.252C1310 390.625 1307.13 395.349 1301.4 398.426C1295.89 401.502 1286.95 403.04 1274.6 403.04H1258.4ZM1258.4 761C1234.8 761 1223 754.847 1223 742.542V470.94C1223 464.788 1225.87 460.173 1231.6 457.097C1237.33 454.02 1246.27 452.482 1258.4 452.482H1274.6C1286.73 452.482 1295.67 454.02 1301.4 457.097C1307.13 460.173 1310 464.788 1310 470.94V742.542C1310 754.847 1298.2 761 1274.6 761H1258.4Z" fill="#202B36"/>
<path d="M1508.47 761C1459.22 761 1422.66 748.312 1398.8 722.935C1374.93 697.342 1363 658.627 1363 606.789C1363 554.518 1375.04 515.152 1399.12 488.691C1423.2 462.23 1460.74 449 1511.72 449C1526.26 449 1540.9 450.627 1555.65 453.88C1570.62 456.917 1582.99 461.471 1592.75 467.544C1602.73 473.4 1607.72 480.558 1607.72 489.017C1607.72 492.487 1605.77 497.909 1601.86 505.284C1598.18 512.658 1593.84 519.273 1588.85 525.129C1584.07 530.769 1580.06 533.588 1576.81 533.588C1575.29 533.588 1571.92 532.07 1566.72 529.033C1558.47 525.129 1550.66 522.093 1543.29 519.924C1535.91 517.538 1526.91 516.345 1516.28 516.345C1493.5 516.345 1476.9 523.611 1466.49 538.143C1456.07 552.458 1450.87 574.581 1450.87 604.512C1450.87 634.66 1455.75 657 1465.51 671.532C1475.49 685.847 1491.33 693.004 1513.02 693.004C1524.95 693.004 1535.37 691.811 1544.26 689.425C1553.16 686.823 1561.62 683.569 1569.65 679.665C1571.17 679.015 1573.01 678.255 1575.18 677.388C1577.35 676.52 1578.98 676.087 1580.06 676.087C1583.97 676.087 1588.2 678.906 1592.75 684.545C1597.53 689.968 1601.54 696.258 1604.79 703.415C1608.26 710.572 1610 716.103 1610 720.007C1610 729.984 1603.49 738.009 1590.47 744.082C1577.46 750.155 1562.92 754.493 1546.87 757.096C1530.81 759.699 1518.01 761 1508.47 761Z" fill="#202B36"/>
</svg>
